<?xml version="1.0" standalone="no"?>
<!DOCTYPE svg PUBLIC "-//W3C//DTD SVG 20010904//EN"
 "http://www.w3.org/TR/2001/REC-SVG-20010904/DTD/svg10.dtd">
<svg version="1.0" xmlns="http://www.w3.org/2000/svg"
 width="828.000000pt" height="828.000000pt" viewBox="0 0 828.000000 828.000000"
 preserveAspectRatio="xMidYMid meet">
<metadata>
Created by potrace 1.14, written by Peter Selinger 2001-2017
</metadata>
<g transform="translate(0.000000,828.000000) scale(0.100000,-0.100000)"
fill="#000000" stroke="none">
<path d="M2838 7434 c-2 -2 -39 -4 -82 -5 -44 -1 -90 -8 -105 -15 -14 -8 -36
-14 -49 -14 -12 0 -30 -4 -40 -10 -39 -21 -135 -40 -207 -40 -80 0 -115 -12
-168 -56 -16 -13 -36 -24 -46 -24 -10 0 -27 -11 -39 -25 -12 -14 -26 -25 -32
-25 -5 0 -19 -9 -30 -20 -11 -11 -26 -20 -34 -20 -26 0 -146 -110 -146 -134 0
-8 -15 -25 -32 -37 -18 -13 -43 -33 -55 -46 -12 -13 -35 -28 -50 -34 -20 -7
-24 -12 -14 -18 8 -5 10 -14 6 -21 -6 -9 -9 -9 -16 1 -6 10 -10 5 -15 -18 -3
-17 -13 -34 -22 -38 -13 -5 -13 -7 2 -18 25 -18 16 -41 -19 -47 -20 -4 -31
-12 -36 -30 -4 -14 -7 -19 -8 -12 -1 18 -21 5 -21 -14 0 -8 7 -14 15 -14 8 0
12 -6 9 -14 -3 -8 -15 -11 -30 -8 -18 3 -24 0 -24 -14 0 -15 2 -16 9 -5 7 10
10 10 16 1 4 -7 1 -16 -6 -21 -22 -14 -28 -11 -35 15 -5 23 -7 23 -22 7 -10
-10 -23 -27 -30 -39 -11 -20 -10 -22 9 -22 11 0 18 -4 15 -9 -3 -5 -15 -7 -26
-4 -11 3 -20 1 -20 -5 0 -5 9 -12 21 -15 14 -4 18 -10 13 -19 -5 -7 -9 -17 -9
-22 0 -5 -6 -11 -14 -14 -8 -3 -12 1 -9 9 7 18 -10 51 -23 44 -5 -4 -9 -15 -9
-26 0 -16 -5 -19 -22 -14 -17 4 -19 4 -9 -3 11 -8 11 -16 2 -43 -6 -18 -9 -34
-6 -37 2 -3 -5 -13 -16 -23 -23 -20 -10 -34 23 -23 17 5 20 3 14 -11 -4 -13
-2 -16 9 -11 8 3 15 2 15 -3 0 -10 -34 -41 -46 -41 -13 0 -11 -78 4 -126 7
-24 23 -49 37 -58 14 -9 25 -23 25 -31 0 -8 4 -15 10 -15 5 0 12 -22 16 -50 7
-53 18 -64 29 -29 5 16 9 18 15 9 5 -7 13 -9 21 -5 8 5 6 -1 -4 -12 -23 -26
-12 -53 20 -53 24 0 25 2 19 43 -4 23 -9 85 -12 138 -5 81 -3 102 12 130 13
25 19 29 22 17 2 -9 -2 -26 -8 -38 -12 -23 -4 -157 11 -165 4 -3 15 22 25 55
9 33 20 63 25 66 13 7 29 -30 19 -46 -9 -14 10 -40 29 -40 15 0 14 17 -1 23
-9 3 -6 7 6 12 13 6 23 3 32 -9 7 -10 17 -15 22 -12 13 8 30 -32 37 -89 3 -27
8 -68 11 -89 l6 -40 14 27 c10 17 13 49 11 94 -2 37 0 83 5 103 5 19 18 73 28
120 24 103 24 102 33 118 5 6 6 12 2 12 -15 0 31 66 90 127 36 37 65 71 65 75
0 5 4 8 9 8 12 0 28 48 30 89 1 19 5 39 8 45 4 6 8 22 9 36 1 14 9 39 18 55 9
17 16 37 16 45 0 8 19 33 43 55 24 22 36 35 28 29 -35 -25 -39 -25 -33 0 7 24
62 76 80 76 6 0 18 7 26 16 9 8 26 16 38 18 13 1 32 7 43 12 11 6 34 11 52 12
18 1 43 6 56 11 14 5 71 15 128 22 57 6 107 15 112 19 8 7 170 -13 237 -30 86
-22 120 -23 140 -5 16 15 21 15 42 2 12 -8 49 -20 81 -27 38 -8 60 -18 67 -31
6 -10 16 -19 23 -19 7 0 31 -21 52 -46 22 -26 52 -58 68 -72 15 -15 27 -32 27
-38 0 -7 11 -22 25 -35 13 -13 25 -30 25 -36 0 -7 4 -13 9 -13 5 0 12 -12 16
-27 5 -16 9 -32 11 -38 2 -5 8 -30 14 -55 6 -24 16 -51 23 -58 17 -21 29 -503
16 -677 -9 -127 -22 -243 -35 -302 -3 -15 2 -26 17 -34 17 -9 20 -8 14 2 -6 8
-4 11 7 6 10 -3 19 3 27 20 7 16 17 23 26 19 10 -4 15 1 15 14 0 29 8 25 51
-22 l39 -43 0 29 c0 20 -4 27 -14 23 -7 -3 -22 6 -33 21 -30 41 -45 72 -34 72
5 0 12 -8 14 -17 3 -10 5 -1 6 20 1 39 23 52 35 21 6 -15 8 -15 25 0 11 10 25
14 36 10 14 -6 16 -4 10 6 -6 10 0 12 30 7 23 -4 44 -2 52 5 10 8 13 6 13 -8
1 -17 2 -17 10 -3 8 13 20 15 57 11 27 -3 51 -10 55 -16 4 -7 13 -5 25 6 14
13 29 16 58 11 22 -3 45 -5 50 -4 6 0 47 1 93 2 45 1 82 6 82 11 0 5 9 4 20
-2 16 -9 18 -8 14 5 -8 19 3 19 23 0 14 -14 17 -14 33 0 15 13 23 14 40 5 15
-8 25 -8 34 -1 7 6 16 8 20 4 4 -4 10 -3 14 3 5 8 20 8 53 0 42 -11 46 -11 41
3 -5 14 -3 14 11 2 13 -10 20 -11 31 -2 14 11 95 8 173 -8 29 -5 40 -5 36 2
-4 6 0 8 8 5 9 -3 26 2 39 12 13 10 30 16 37 13 8 -3 13 2 13 12 0 11 5 15 15
11 8 -3 21 -9 29 -12 9 -3 19 3 26 15 7 14 7 21 0 21 -5 0 -10 5 -10 10 0 6 7
10 16 10 11 0 15 -6 11 -20 -3 -11 -1 -20 4 -20 5 0 11 11 15 25 6 24 34 36
34 15 0 -5 -5 -10 -11 -10 -5 0 -7 -4 -4 -10 3 -5 1 -10 -5 -10 -6 0 -8 -4 -5
-10 3 -5 -1 -10 -9 -10 -28 0 -17 -18 13 -22 27 -4 29 -2 20 15 -9 17 -8 17
10 7 14 -7 21 -7 21 0 0 5 -7 10 -15 10 -19 0 -18 8 1 40 8 14 13 17 10 8 -7
-24 14 -35 29 -15 7 9 21 15 33 12 19 -3 20 -1 10 21 -13 27 -19 29 -37 12
-11 -11 -12 -9 -7 8 5 18 1 22 -24 27 -19 4 -30 13 -30 23 0 13 -3 14 -14 5
-12 -10 -18 -7 -31 18 -8 17 -21 31 -28 31 -8 0 -8 -3 2 -9 16 -10 6 -32 -12
-25 -22 8 -20 67 2 84 18 14 19 17 4 35 -15 20 -15 20 -8 -2 5 -17 2 -23 -9
-23 -9 0 -16 5 -16 10 0 6 -4 10 -10 10 -5 0 -7 -13 -4 -29 3 -16 1 -37 -5
-48 -7 -15 -7 -23 2 -33 7 -7 0 -5 -15 5 -32 20 -33 23 -13 52 8 12 12 29 8
38 -5 15 -8 14 -20 -6 -11 -19 -13 -20 -9 -4 3 11 1 26 -3 34 -8 12 -12 13
-25 1 -9 -7 -19 -10 -22 -7 -9 8 -31 -15 -37 -39 -4 -16 -5 -16 -6 -1 0 9 -8
17 -16 17 -10 0 -14 9 -12 30 1 16 7 30 13 30 5 0 19 7 30 15 14 11 15 14 3 9
-10 -3 -20 -1 -24 5 -3 6 -15 11 -26 11 -10 0 -19 6 -19 13 0 9 -3 8 -9 -2 -7
-11 -11 -10 -20 5 -9 16 -12 17 -20 5 -8 -12 -12 -12 -24 -2 -12 9 -22 8 -49
-7 -29 -17 -35 -17 -47 -5 -9 10 -24 13 -41 10 -22 -5 -30 -1 -40 18 -10 18
-17 22 -25 15 -13 -11 -45 -4 -45 10 0 4 -16 6 -35 4 -29 -2 -38 2 -52 26 -15
27 -62 47 -73 31 -3 -4 -14 -11 -25 -14 -18 -6 -18 -5 3 12 27 24 28 31 2 31
-11 0 -20 5 -20 10 0 6 9 10 20 10 11 0 20 -5 20 -11 0 -6 6 -9 13 -6 6 2 11
10 10 18 -3 17 51 43 72 35 8 -3 12 -12 9 -21 -5 -12 1 -15 27 -15 31 1 33 2
15 15 -10 7 -15 18 -12 23 3 5 -4 12 -15 15 -15 4 -20 11 -16 21 5 11 0 16
-13 16 -13 0 -20 -7 -20 -20 0 -23 -10 -26 -28 -8 -9 9 -13 7 -18 -5 -3 -9
-13 -17 -21 -17 -8 0 -11 -4 -8 -10 3 -5 -1 -10 -9 -10 -10 0 -13 7 -11 21 4
18 1 20 -20 15 -26 -7 -45 11 -25 24 8 5 8 10 2 14 -5 3 -13 -1 -16 -9 -3 -9
-17 -20 -31 -25 -16 -6 -23 -14 -19 -25 3 -8 1 -15 -5 -15 -6 0 -11 6 -11 14
0 7 -9 16 -20 19 -23 6 -27 27 -5 27 8 0 15 7 15 17 0 15 -1 15 -18 0 -24 -21
-82 -34 -82 -18 0 7 -12 23 -26 36 -29 27 -39 32 -28 14 5 -8 -18 -10 -80 -8
-64 3 -86 1 -86 -8 0 -7 -4 -13 -10 -13 -5 0 -10 7 -10 15 0 8 5 15 10 15 6 0
10 5 10 10 0 6 -6 10 -13 10 -7 0 -22 6 -32 14 -16 12 -17 16 -6 30 9 11 10
16 2 16 -6 0 -11 -4 -11 -9 0 -5 -11 -8 -25 -8 -21 0 -25 4 -25 31 0 17 -4 48
-9 69 -5 20 -6 39 -2 41 11 7 12 76 1 76 -6 0 -8 -10 -4 -25 4 -15 2 -25 -4
-25 -6 0 -14 15 -17 33 -4 17 -22 62 -40 100 -18 37 -29 67 -25 67 5 0 10 -4
12 -10 2 -6 8 -6 18 0 13 9 13 10 0 10 -15 0 -60 60 -60 79 0 6 -4 13 -10 16
-9 6 -4 -17 9 -40 3 -6 -6 3 -21 20 -15 16 -28 35 -28 41 0 6 -9 19 -20 29
-12 10 -19 24 -16 31 3 9 -1 11 -12 7 -9 -3 -14 -3 -10 2 4 4 3 14 -3 22 -9
10 -8 13 5 13 9 0 16 5 16 10 0 6 -7 10 -15 10 -8 0 -32 15 -52 33 -21 19 -47
39 -58 45 -11 6 -14 12 -7 12 17 0 15 20 -3 20 -8 0 -15 6 -15 13 0 9 -2 9 -8
0 -12 -19 -44 23 -37 48 4 11 2 19 -4 19 -6 0 -11 -7 -11 -16 0 -12 -5 -14
-17 -9 -10 4 -25 8 -35 9 -9 1 -24 8 -33 16 -15 12 -16 11 -10 -13 5 -20 3
-27 -8 -27 -17 0 -40 24 -31 33 4 3 -2 6 -12 6 -44 0 -82 9 -124 30 -40 20
-179 38 -192 25z m437 -94 c3 -5 -1 -10 -9 -10 -8 0 -18 5 -21 10 -3 6 1 10 9
10 8 0 18 -4 21 -10z m-1742 -730 c6 -23 -3 -26 -21 -8 -16 16 -15 28 2 28 7
0 16 -9 19 -20z m77 16 c0 -2 -7 -7 -16 -10 -8 -3 -12 -2 -9 4 6 10 25 14 25
6z m-38 -31 c0 -5 -5 -11 -10 -13 -5 -1 -9 4 -9 13 0 9 4 14 9 13 5 -2 10 -8
10 -13z m-57 -85 c3 -5 1 -10 -4 -10 -6 0 -11 5 -11 10 0 6 2 10 4 10 3 0 8
-4 11 -10z m35 -31 c0 -5 -4 -9 -10 -9 -5 0 -10 7 -10 16 0 8 5 12 10 9 6 -3
10 -10 10 -16z m2210 1 c0 -5 -2 -10 -4 -10 -3 0 -8 5 -11 10 -3 6 -1 10 4 10
6 0 11 -4 11 -10z m270 -26 c0 -8 -4 -12 -10 -9 -5 3 -10 10 -10 16 0 5 5 9
10 9 6 0 10 -7 10 -16z m-225 -5 c-4 -6 -17 -14 -29 -19 -18 -8 -16 -9 14 -10
l35 -2 -30 -9 c-24 -7 -33 -5 -42 8 -7 9 -13 22 -13 27 0 6 4 5 9 -2 7 -12 11
-11 22 2 16 17 44 22 34 5z m272 -31 c-3 -8 -6 -5 -6 6 -1 11 2 17 5 13 3 -3
4 -12 1 -19z m173 1 c0 -5 -9 -9 -20 -9 -22 0 -27 16 -7 23 15 5 27 -1 27 -14z
m26 -6 c-10 -10 -19 5 -10 18 6 11 8 11 12 0 2 -7 1 -15 -2 -18z m-326 -3 c0
-5 -4 -10 -10 -10 -5 0 -10 5 -10 10 0 6 5 10 10 10 6 0 10 -4 10 -10z m80 0
c0 -5 -4 -10 -10 -10 -5 0 -10 5 -10 10 0 6 5 10 10 10 6 0 10 -4 10 -10z
m237 -16 c-3 -3 -12 -4 -19 -1 -8 3 -5 6 6 6 11 1 17 -2 13 -5z m-462 -14 c3
-5 -1 -10 -10 -10 -9 0 -13 5 -10 10 3 6 8 10 10 10 2 0 7 -4 10 -10z m395
-10 c0 -11 -4 -20 -8 -20 -4 0 -8 9 -9 20 -1 11 2 20 8 20 5 0 9 -9 9 -20z
m-349 -7 c13 -16 12 -17 -3 -4 -10 7 -18 15 -18 17 0 8 8 3 21 -13z m239 -16
c0 -4 -6 -2 -14 5 -8 7 -12 17 -9 22 5 8 23 -12 23 -27z m40 3 c0 -5 -4 -10
-10 -10 -5 0 -10 5 -10 10 0 6 5 10 10 10 6 0 10 -4 10 -10z m49 -23 c9 -11 5
-14 -22 -14 -17 0 -24 2 -14 4 9 3 17 9 17 14 0 13 6 11 19 -4z m75 -22 c16
-12 17 -15 4 -15 -8 0 -21 7 -28 15 -16 19 -1 19 24 0z m146 -45 c0 -5 -4 -10
-10 -10 -5 0 -10 5 -10 10 0 6 5 10 10 10 6 0 10 -4 10 -10z m115 -20 c3 -5 1
-10 -4 -10 -6 0 -11 5 -11 10 0 6 2 10 4 10 3 0 8 -4 11 -10z m-3070 -41 c-10
-15 -25 -10 -19 6 4 8 10 12 15 9 5 -3 7 -10 4 -15z m3296 -17 c-7 -2 -18 1
-23 6 -8 8 -4 9 13 5 13 -4 18 -8 10 -11z m45 -32 c0 -11 -4 -20 -8 -20 -4 0
-8 9 -8 20 0 11 4 20 8 20 4 0 8 -9 8 -20z m-51 0 c-3 -5 -12 -7 -20 -3 -21 7
-19 13 6 13 11 0 18 -4 14 -10z m155 -46 c0 -8 -4 -12 -10 -9 -5 3 -10 10 -10
16 0 5 5 9 10 9 6 0 10 -7 10 -16z m30 -13 c0 -6 -4 -13 -10 -16 -5 -3 -10 1
-10 9 0 9 5 16 10 16 6 0 10 -4 10 -9z m-47 -18 c-7 -2 -19 -2 -25 0 -7 3 -2
5 12 5 14 0 19 -2 13 -5z m67 -12 c0 -6 -4 -13 -10 -16 -5 -3 -10 1 -10 9 0 9
5 16 10 16 6 0 10 -4 10 -9z m-92 -47 c-3 -27 -4 -26 -9 8 -3 22 -1 34 4 29 5
-5 7 -21 5 -37z m187 -14 c3 -5 -1 -10 -9 -10 -9 0 -16 5 -16 10 0 6 4 10 9
10 6 0 13 -4 16 -10z m10 -39 c3 -5 1 -12 -4 -15 -5 -3 -11 1 -15 9 -6 16 9
21 19 6z m85 -5 c0 -3 -4 -8 -10 -11 -5 -3 -10 -1 -10 4 0 6 5 11 10 11 6 0
10 -2 10 -4z m-220 -16 c0 -5 -4 -10 -9 -10 -6 0 -13 5 -16 10 -3 6 1 10 9 10
9 0 16 -4 16 -10z m-10 -30 c0 -5 -4 -10 -10 -10 -5 0 -10 5 -10 10 0 6 5 10
10 10 6 0 10 -4 10 -10z m134 -25 c3 -9 0 -15 -9 -15 -8 0 -15 7 -15 15 0 8 4
15 9 15 5 0 11 -7 15 -15z m-307 -27 c-3 -8 -6 -5 -6 6 -1 11 2 17 5 13 3 -3
4 -12 1 -19z m223 7 c-7 -8 -17 -12 -23 -8 -6 4 -3 9 9 14 27 11 28 11 14 -6z
m-60 -4 c0 -4 -11 -6 -25 -3 -14 2 -25 6 -25 8 0 2 11 4 25 4 14 0 25 -4 25
-9z m-17 -21 c7 0 5 -5 -5 -10 -19 -12 -51 -3 -42 12 3 5 13 7 21 4 8 -3 20
-6 26 -6z m-1223 -148 c0 -13 -4 -20 -10 -17 -5 3 -10 21 -10 38 0 24 3 28 10
17 5 -8 10 -25 10 -38z"/>
<path d="M3136 7411 c-3 -5 1 -11 9 -14 9 -4 12 -1 8 9 -6 16 -10 17 -17 5z"/>
<path d="M7648 7323 c7 -3 16 -2 19 1 4 3 -2 6 -13 5 -11 0 -14 -3 -6 -6z"/>
<path d="M7681 7303 c-1 -24 13 -31 25 -11 4 6 3 8 -4 4 -6 -3 -13 2 -15 11
-4 14 -5 13 -6 -4z"/>
<path d="M7643 7290 c-3 -11 -12 -20 -19 -20 -17 0 -18 -12 -2 -28 9 -9 8 -12
-4 -12 -9 0 -18 6 -21 13 -2 6 -8 9 -12 5 -4 -4 5 -18 20 -32 19 -18 23 -26
13 -26 -9 0 -18 7 -22 15 -7 18 -26 20 -26 2 0 -7 -9 -19 -19 -27 -19 -13 -19
-15 -4 -42 19 -31 10 -51 -11 -23 -9 12 -15 15 -20 7 -4 -7 -3 -12 3 -12 6 0
8 -6 5 -14 -3 -9 -12 -12 -22 -8 -15 5 -15 4 1 -12 23 -23 22 -44 -1 -23 -25
23 -35 21 -29 -3 4 -15 -2 -24 -24 -35 -28 -15 -33 -25 -30 -52 1 -7 -7 -13
-19 -13 -11 0 -20 -5 -20 -11 0 -6 -13 -28 -29 -48 -29 -36 -31 -41 -31 -62 0
-7 -9 -9 -21 -6 -15 4 -19 2 -15 -9 3 -8 1 -14 -4 -14 -6 0 -10 -11 -10 -25 0
-16 -6 -25 -15 -25 -8 0 -15 -4 -15 -10 0 -5 -7 -10 -16 -10 -8 0 -12 -4 -9
-10 3 -5 -1 -21 -10 -34 -9 -14 -16 -26 -16 -28 0 -2 -2 -14 -6 -27 -6 -23 -7
-23 -14 -5 -7 16 -8 17 -8 2 -1 -10 -8 -18 -16 -18 -17 0 -53 -54 -70 -105 -6
-16 -17 -29 -24 -27 -9 2 -12 -4 -8 -18 3 -13 0 -20 -9 -20 -8 0 -14 -10 -14
-25 0 -15 -6 -25 -14 -25 -8 0 -18 -5 -22 -12 -4 -7 -3 -8 4 -4 7 4 12 4 12
-1 -1 -12 -26 -43 -36 -43 -11 -1 -54 -36 -54 -45 0 -3 5 -3 10 0 6 3 10 1 10
-4 0 -6 -4 -11 -10 -11 -5 0 -12 -10 -15 -22 -4 -13 -22 -34 -40 -48 -19 -14
-35 -31 -35 -39 0 -7 -6 -11 -15 -7 -17 6 -21 -9 -5 -19 7 -4 7 -13 0 -26 -6
-11 -15 -17 -21 -14 -5 4 -9 -6 -9 -20 0 -15 -4 -24 -10 -20 -5 3 -19 0 -31
-8 -14 -11 -17 -17 -9 -22 8 -5 0 -18 -25 -40 -33 -30 -36 -36 -30 -71 6 -34
5 -37 -6 -22 -13 16 -16 14 -31 -17 -10 -19 -13 -35 -8 -35 6 0 10 7 10 17 0
15 2 15 19 -1 11 -10 17 -24 14 -32 -3 -8 4 -17 18 -23 28 -10 46 -4 73 21 12
11 22 14 26 8 4 -6 17 0 34 15 31 29 46 32 46 9 0 -8 5 -12 10 -9 12 7 14 36
3 34 -21 -3 -33 2 -33 16 0 18 16 20 24 3 3 -7 4 -4 1 7 -3 15 3 25 23 37 15
10 21 18 14 18 -10 0 -10 4 2 16 9 8 16 28 16 43 0 26 3 28 31 25 26 -3 30 -1
25 13 -4 9 -1 20 6 25 10 6 8 9 -8 14 -19 5 -19 7 13 39 20 20 33 43 33 59 0
19 6 27 25 32 15 4 25 13 25 24 0 10 6 23 14 30 8 6 13 17 10 24 -3 7 9 26 25
44 20 21 28 37 24 48 -5 13 -2 16 8 12 8 -3 22 5 32 18 15 20 16 24 3 24 -21
0 -10 28 26 64 16 15 27 33 25 39 -2 6 7 27 20 46 13 18 23 40 23 47 0 8 4 14
8 14 5 0 17 16 28 35 10 19 22 35 25 35 8 0 46 59 71 113 10 20 23 37 28 37 5
0 11 9 15 19 3 11 25 48 48 83 23 35 53 83 66 108 13 25 26 47 30 50 12 9 51
81 51 95 0 7 5 15 11 17 13 4 1 58 -13 58 -5 0 -12 -9 -15 -20z m-943 -1334
c0 -3 -4 -8 -10 -11 -5 -3 -10 -1 -10 4 0 6 5 11 10 11 6 0 10 -2 10 -4z"/>
<path d="M3468 7223 c7 -3 16 -2 19 1 4 3 -2 6 -13 5 -11 0 -14 -3 -6 -6z"/>
<path d="M3665 6910 c3 -5 8 -10 11 -10 2 0 4 5 4 10 0 6 -5 10 -11 10 -5 0
-7 -4 -4 -10z"/>
<path d="M3740 6829 c0 -5 5 -7 10 -4 6 3 10 8 10 11 0 2 -4 4 -10 4 -5 0 -10
-5 -10 -11z"/>
<path d="M1595 6780 c3 -5 10 -10 16 -10 5 0 9 5 9 10 0 6 -7 10 -16 10 -8 0
-12 -4 -9 -10z"/>
<path d="M3878 6742 c-17 -7 -16 -8 2 -20 17 -11 20 -10 20 8 0 11 -1 20 -2
19 -2 0 -11 -4 -20 -7z"/>
<path d="M3736 6683 c8 -35 23 -55 36 -47 13 8 55 -33 81 -78 17 -32 26 -38
54 -38 18 0 33 5 33 10 0 6 -5 10 -11 10 -12 0 -3 51 11 60 11 7 17 39 8 39
-23 2 -27 0 -22 -14 10 -25 -28 -18 -55 10 -13 14 -18 25 -12 25 13 0 15 36 2
44 -16 10 -32 -21 -25 -49 6 -25 5 -26 -15 -13 -11 7 -21 18 -21 25 0 6 -12
13 -27 15 -16 2 -27 8 -25 16 1 6 -3 12 -8 12 -6 0 -8 -11 -4 -27z m169 -110
c6 -25 0 -43 -16 -43 -5 0 -9 16 -9 35 0 29 -4 35 -21 35 -11 0 -18 4 -14 10
10 16 53 -10 60 -37z"/>
<path d="M3990 6693 c-19 -9 -37 -18 -39 -19 -6 -5 27 -34 38 -34 15 0 14 17
-1 23 -10 4 -10 6 0 6 15 1 47 30 40 36 -2 2 -19 -4 -38 -12z"/>
<path d="M1430 6670 c-9 -6 -10 -10 -3 -10 6 0 15 5 18 10 8 12 4 12 -15 0z"/>
<path d="M3890 6654 c0 -8 5 -12 10 -9 6 3 10 10 10 16 0 5 -4 9 -10 9 -5 0
-10 -7 -10 -16z"/>
<path d="M1422 6642 c-19 -3 -21 -6 -11 -18 7 -9 7 -14 1 -14 -5 0 -8 -9 -5
-19 8 -30 46 -12 48 23 1 31 -1 33 -33 28z"/>
<path d="M4081 6624 c0 -11 3 -14 6 -6 3 7 2 16 -1 19 -3 4 -6 -2 -5 -13z"/>
<path d="M4108 6633 c7 -3 16 -2 19 1 4 3 -2 6 -13 5 -11 0 -14 -3 -6 -6z"/>
<path d="M3988 6588 c18 -32 42 -49 42 -29 0 6 -8 11 -17 11 -17 1 -17 2 -1
13 15 12 15 14 -3 25 -32 20 -39 13 -21 -20z"/>
<path d="M3946 6583 c-11 -11 -6 -23 9 -23 8 0 15 4 15 9 0 13 -16 22 -24 14z"/>
<path d="M748 6573 c7 -3 16 -2 19 1 4 3 -2 6 -13 5 -11 0 -14 -3 -6 -6z"/>
<path d="M780 6566 c0 -2 7 -7 16 -10 8 -3 12 -2 9 4 -6 10 -25 14 -25 6z"/>
<path d="M3970 6536 c0 -9 5 -16 10 -16 6 0 10 4 10 9 0 6 -4 13 -10 16 -5 3
-10 -1 -10 -9z"/>
<path d="M4178 6499 c4 -26 6 -29 14 -15 10 18 4 46 -10 46 -5 0 -6 -14 -4
-31z"/>
<path d="M810 6510 c0 -5 5 -10 11 -10 5 0 7 5 4 10 -3 6 -8 10 -11 10 -2 0
-4 -4 -4 -10z"/>
<path d="M1370 6513 c0 -6 -9 -13 -20 -16 -24 -6 -28 -47 -5 -47 8 0 15 -4 15
-10 0 -5 5 -10 10 -10 8 0 8 6 1 17 -7 13 -5 23 6 36 13 13 14 20 5 29 -8 8
-12 8 -12 1z"/>
<path d="M490 6495 c0 -8 5 -15 10 -15 6 0 10 7 10 15 0 8 -4 15 -10 15 -5 0
-10 -7 -10 -15z"/>
<path d="M2401 6494 c-11 -14 -11 -15 5 -13 23 3 57 -10 66 -26 4 -6 26 -25
50 -41 24 -16 65 -51 91 -78 42 -42 55 -49 95 -52 26 -2 42 -1 36 3 -6 5 -13
15 -16 23 -4 12 4 15 41 15 36 0 46 4 49 18 4 20 -24 46 -50 47 -9 0 -23 8
-30 18 -48 63 -180 105 -275 86 -22 -4 -33 -2 -33 5 0 15 -12 13 -29 -5z"/>
<path d="M4080 6494 c0 -9 5 -14 12 -12 18 6 21 28 4 28 -9 0 -16 -7 -16 -16z"/>
<path d="M2345 6490 c-3 -5 -1 -10 4 -10 6 0 11 5 11 10 0 6 -2 10 -4 10 -3 0
-8 -4 -11 -10z"/>
<path d="M4285 6490 c-3 -5 1 -10 9 -10 9 0 16 5 16 10 0 6 -4 10 -9 10 -6 0
-13 -4 -16 -10z"/>
<path d="M715 6470 c4 -6 11 -8 16 -5 14 9 11 15 -7 15 -8 0 -12 -5 -9 -10z"/>
<path d="M4317 6465 c-4 -8 -2 -17 3 -20 6 -4 10 3 10 14 0 25 -6 27 -13 6z"/>
<path d="M640 6460 c0 -5 5 -10 10 -10 6 0 10 5 10 10 0 6 -4 10 -10 10 -5 0
-10 -4 -10 -10z"/>
<path d="M878 6456 c-11 -8 -18 -26 -18 -44 0 -31 -20 -56 -28 -34 -2 7 -11
12 -19 12 -13 0 -13 -3 -3 -15 8 -9 8 -15 2 -15 -6 0 -12 -6 -15 -12 -2 -7 -3
-5 -2 5 3 13 -4 17 -31 17 -19 0 -33 -3 -33 -7 3 -20 -2 -24 -16 -13 -8 7 -24
10 -34 7 -14 -3 -18 -1 -14 9 3 8 0 14 -6 14 -6 0 -11 -5 -11 -11 0 -8 -14
-10 -40 -6 -24 3 -41 1 -44 -7 -2 -6 -5 -3 -5 7 -1 16 -3 16 -31 2 -32 -17
-44 -19 -36 -7 12 20 -13 33 -55 30 l-44 -3 27 -14 c22 -11 30 -12 43 -1 33
27 13 -5 -27 -44 -24 -22 -42 -44 -41 -47 1 -4 -7 -15 -19 -25 -20 -19 -21
-19 -13 6 4 14 10 31 12 38 3 7 -3 12 -15 12 -19 0 -38 27 -27 38 3 3 5 0 5
-6 0 -7 9 -12 19 -12 11 0 21 -5 23 -12 5 -13 28 -2 28 13 0 6 -5 7 -10 4 -7
-5 -9 7 -6 34 3 23 1 41 -5 41 -5 0 -9 -5 -9 -12 0 -9 -3 -9 -12 0 -7 7 -18
12 -25 12 -22 0 -14 -20 12 -32 24 -11 35 -38 15 -38 -5 0 -10 7 -10 15 0 10
-9 14 -25 13 -17 -2 -25 -8 -25 -20 0 -10 -4 -18 -10 -18 -5 0 -10 6 -10 14 0
14 -29 30 -38 21 -3 -3 0 -5 6 -5 7 0 12 -11 12 -25 0 -28 -3 -29 -31 -14 -11
5 -17 15 -13 21 4 7 9 6 15 -3 5 -8 9 -9 9 -3 0 22 -45 43 -72 34 -5 -1 -14
-3 -20 -4 -7 0 -13 -8 -13 -16 0 -19 -18 -39 -29 -33 -4 3 -2 9 5 14 10 6 5
11 -16 19 -35 13 -85 58 -85 76 0 7 -4 16 -10 19 -7 4 -10 -51 -10 -159 0
-153 1 -165 18 -159 14 5 13 3 -3 -10 -11 -8 -17 -18 -14 -21 10 -10 39 5 39
21 0 8 5 11 10 8 16 -10 12 -20 -19 -38 -23 -13 -29 -24 -29 -47 1 -17 7 -30
13 -30 16 0 27 -52 14 -64 -16 -18 -10 -34 11 -29 12 3 20 0 20 -7 0 -9 -10
-11 -30 -6 -29 5 -30 4 -30 -29 0 -19 4 -35 8 -35 4 0 8 -9 8 -20 0 -11 -4
-20 -8 -20 -4 0 -8 -18 -8 -40 0 -35 3 -40 23 -40 18 0 19 -2 7 -10 -10 -6
-11 -10 -2 -10 6 0 12 -4 12 -10 0 -5 -8 -10 -17 -10 -15 0 -18 -10 -19 -65
-1 -49 2 -65 13 -65 7 0 18 -11 22 -23 5 -13 17 -31 26 -40 15 -16 15 -17 -10
-17 -14 0 -28 7 -31 15 -10 25 -24 17 -24 -15 0 -28 2 -29 33 -23 29 6 31 5
18 -11 -8 -10 -21 -14 -32 -11 -11 4 -19 2 -19 -4 0 -6 9 -11 20 -11 11 0 20
-4 20 -9 0 -5 -9 -7 -19 -4 -18 4 -19 -1 -20 -63 0 -37 5 -74 11 -81 7 -9 7
-13 -1 -13 -6 0 -11 -4 -11 -10 0 -5 7 -10 15 -10 8 0 15 -4 15 -10 0 -5 -6
-10 -14 -10 -19 0 -22 -610 -3 -622 9 -6 9 -8 0 -8 -10 0 -13 -464 -13 -2285
l0 -2285 3736 0 3735 0 -7 23 c-8 29 -34 58 -45 51 -5 -3 -13 6 -18 19 -6 14
-15 28 -21 32 -5 3 -8 11 -5 16 4 5 1 9 -4 9 -6 0 -11 7 -11 15 0 8 -4 15 -8
15 -4 0 -8 8 -9 18 -7 67 -17 92 -38 92 -8 0 -17 12 -21 28 -4 15 -11 32 -18
37 -6 6 -24 29 -40 53 -17 24 -41 52 -54 63 -14 10 -21 19 -17 19 5 0 0 9 -10
20 -10 11 -22 20 -27 20 -23 0 -46 40 -42 73 10 83 58 158 131 205 72 46 116
50 183 15 100 -52 154 -86 226 -138 66 -50 250 -166 448 -285 49 -29 112 -68
140 -87 28 -18 56 -33 63 -33 10 0 13 172 13 866 0 819 -1 865 -17 862 -14 -3
-18 -14 -19 -57 l-1 -54 -89 2 c-49 1 -90 3 -91 4 -1 1 -11 106 -23 232 l-21
230 -32 28 -32 28 -8 282 c-4 155 -9 287 -11 294 -5 13 -17 12 -59 -5 -35 -15
-34 -15 -34 3 0 10 8 13 25 10 24 -4 24 -4 18 63 -4 37 -9 112 -12 167 -3 55
-9 114 -13 130 -4 17 -9 59 -10 95 -1 36 -6 103 -11 150 -13 112 -28 294 -35
400 -12 197 -15 251 -20 355 -5 107 -11 174 -20 244 -3 20 2 42 10 54 10 14
15 46 15 90 0 57 3 68 15 63 8 -3 15 0 15 7 0 18 -13 32 -29 32 -15 0 -23 42
-10 50 4 3 5 14 2 25 -3 13 -19 22 -47 29 l-41 9 38 1 c36 1 51 16 23 23 -12
3 -12 6 1 23 14 18 15 18 9 2 -4 -13 -2 -17 6 -14 7 2 12 16 11 31 -2 26 12
36 19 14 2 -6 10 -8 16 -4 18 11 15 23 -8 29 -21 5 -29 47 -9 47 6 0 8 -8 4
-19 -4 -13 0 -20 14 -24 20 -5 20 -4 5 32 -8 20 -19 40 -24 45 -5 5 0 16 13
27 12 9 18 21 14 25 -4 5 -12 2 -17 -6 -6 -8 -10 -10 -10 -4 0 6 9 19 20 29
16 15 20 15 15 3 -4 -9 0 -18 8 -21 17 -7 18 23 0 38 -8 7 -8 17 -1 35 l11 25
6 -25 c5 -17 9 -21 15 -12 4 6 5 16 1 22 -7 11 84 100 104 100 9 0 11 -7 7
-22 -4 -13 -10 -56 -13 -97 -5 -57 -3 -72 6 -67 7 5 21 0 32 -10 20 -18 20
-18 14 9 -8 30 14 54 172 184 57 47 82 75 82 91 1 19 -10 13 -88 -48 -48 -38
-91 -70 -93 -70 -14 0 -14 53 -1 63 21 17 54 49 86 85 16 18 35 32 43 32 8 0
14 7 14 15 0 8 3 15 8 15 4 0 13 10 21 23 16 25 24 30 -84 -54 -38 -29 -76
-59 -83 -66 -7 -7 -16 -13 -20 -13 -7 0 54 59 145 141 l52 46 -1 66 c-1 37 -5
67 -11 67 -5 0 -7 -11 -5 -24 3 -14 1 -31 -3 -38 -7 -10 -9 -9 -9 4 0 9 -5 20
-10 23 -6 4 -9 1 -8 -7 2 -8 -5 -12 -17 -10 -15 2 -16 0 -7 -6 11 -8 9 -14 -9
-31 -13 -12 -28 -20 -35 -17 -14 5 -44 -29 -44 -50 0 -9 -9 -18 -20 -21 -11
-3 -20 -10 -20 -16 0 -13 -52 -57 -68 -57 -7 0 -18 -13 -23 -30 -7 -19 -18
-30 -30 -30 -10 0 -19 -6 -19 -14 0 -7 -8 -20 -17 -27 -11 -10 -14 -10 -9 -1
9 15 -6 16 -22 0 -9 -9 -15 -9 -23 -1 -8 8 -5 13 10 18 15 4 20 12 16 23 -3
12 3 21 18 27 15 7 21 17 19 32 -2 14 4 23 15 27 13 4 18 16 18 46 0 34 -3 39
-19 34 -12 -4 -16 -2 -12 5 4 6 2 11 -4 11 -8 0 -10 9 -6 25 5 18 3 24 -6 23
-7 -2 -13 4 -13 12 0 8 -4 18 -10 22 -5 4 0 8 13 8 12 0 22 -5 22 -12 0 -12
29 21 30 35 0 15 -19 6 -23 -10 -2 -10 -4 6 -5 35 0 28 4 52 9 52 4 0 6 7 3
15 -4 10 0 15 10 15 14 0 15 2 4 14 -7 8 -14 10 -16 6 -2 -4 -11 -6 -20 -3
-10 2 -34 -11 -57 -31 -22 -20 -42 -36 -45 -36 -3 0 -55 -49 -115 -108 -61
-60 -122 -116 -137 -126 -25 -17 -27 -16 -43 6 -16 21 -16 16 0 -23 4 -11 0
-19 -11 -23 -14 -5 -15 -4 -4 9 11 13 9 15 -12 15 -19 0 -50 -26 -124 -105
l-99 -105 -65 6 c-36 3 -76 1 -90 -4 -24 -10 -24 -11 10 -13 69 -3 205 3 210
10 10 15 55 35 74 32 12 -2 16 1 11 10 -6 9 -1 11 19 7 18 -4 26 -1 26 8 0 8
7 14 15 14 9 0 15 9 15 25 0 14 -5 25 -10 25 -6 0 -5 8 2 20 12 19 14 16 20
-27 21 -129 38 -272 38 -311 0 -26 4 -41 10 -37 13 8 13 -18 0 -31 -16 -16 -1
-124 16 -124 8 0 14 -9 14 -20 0 -25 -17 -26 -23 -2 -4 13 -5 11 -6 -5 0 -13
4 -23 10 -23 6 0 9 -14 7 -32 -2 -19 2 -33 10 -36 9 -3 11 4 7 25 -5 23 -4 25
5 10 6 -10 8 -27 4 -40 -5 -12 -7 -28 -5 -35 1 -7 -3 -11 -10 -10 -7 2 -13 -9
-13 -27 -1 -27 2 -30 37 -35 35 -5 41 -10 71 -66 23 -44 33 -76 34 -115 3 -65
21 -308 27 -364 2 -22 7 -85 10 -140 3 -55 8 -120 10 -145 3 -25 12 -153 20
-285 8 -132 17 -265 20 -295 2 -30 9 -115 15 -188 6 -74 12 -139 13 -145 1 -7
-5 -10 -13 -8 -29 7 -65 11 -52 5 6 -3 10 -10 6 -15 -9 -15 -24 -10 -24 8 0
15 -33 16 -422 10 -324 -5 -423 -10 -430 -19 -6 -10 -8 -10 -8 0 0 7 -14 12
-35 12 -24 0 -35 -5 -35 -15 0 -8 5 -15 10 -15 6 0 10 5 10 10 0 6 10 10 23
10 18 0 19 -2 7 -10 -13 -9 -13 -11 0 -19 9 -7 17 -6 21 1 9 13 29 1 29 -17 0
-11 -16 -14 -67 -14 -38 0 -179 -3 -314 -7 l-246 -7 -22 32 c-13 18 -21 34
-19 37 3 2 79 7 169 12 99 4 163 11 163 17 -1 6 -5 66 -8 135 -13 234 -36 625
-42 701 -3 42 -2 79 3 82 4 3 49 10 100 16 84 10 99 9 175 -11 164 -43 376
-23 535 51 34 16 88 32 120 36 85 10 93 13 93 41 0 23 -2 24 -77 24 -43 0
-136 -4 -208 -10 -71 -5 -192 -12 -267 -15 -120 -5 -137 -3 -132 10 4 8 14 15
23 15 9 0 55 5 103 10 47 6 207 21 354 35 147 13 268 26 270 27 3 4 -34 520
-39 524 -2 2 -29 -1 -61 -6 -32 -5 -144 -12 -249 -15 -106 -4 -218 -8 -249
-10 -32 -1 -58 1 -58 7 0 15 -218 1 -450 -30 l-55 -7 -6 -67 c-3 -38 -9 -71
-13 -75 -4 -4 -16 -1 -28 6 -18 11 -23 11 -33 -3 -20 -26 -32 0 -40 82 -10 95
-25 93 -20 -2 4 -61 1 -75 -12 -80 -9 -4 -17 -5 -18 -4 -1 2 -10 20 -19 42
-13 27 -21 35 -26 26 -6 -10 -11 -8 -21 9 -21 32 -25 26 -27 -36 -1 -31 -7
-82 -14 -112 -9 -42 -9 -56 0 -59 15 -5 16 -78 1 -87 -6 -4 -7 -19 -4 -36 5
-24 4 -28 -9 -23 -9 3 -16 1 -16 -5 0 -6 -16 -19 -35 -28 -21 -10 -35 -24 -35
-35 0 -10 -5 -18 -11 -18 -5 0 -7 5 -3 12 5 8 2 9 -9 5 -9 -3 -19 -2 -22 3 -9
15 -47 -30 -41 -48 5 -13 2 -12 -9 2 -8 11 -15 24 -15 29 0 5 -7 7 -15 4 -8
-4 -17 -1 -21 4 -4 6 -11 1 -18 -13 -7 -13 -19 -22 -29 -20 -10 2 -17 -4 -17
-13 0 -8 -4 -15 -10 -15 -5 0 -10 -13 -10 -30 l0 -30 -255 0 c-220 0 -255 2
-255 15 0 8 -7 15 -15 15 -13 0 -14 -4 -5 -20 12 -23 7 -25 -21 -10 -10 6 -19
7 -19 3 0 -4 -37 -9 -83 -10 -45 0 -92 -1 -105 -2 -14 -1 -26 -10 -31 -23 -7
-21 -8 -20 -13 9 -2 18 -6 106 -7 195 -1 90 -4 179 -7 198 -2 19 -6 242 -10
495 -5 461 -5 461 15 461 12 0 21 -4 21 -8 0 -4 -5 -8 -11 -8 -5 0 -7 -5 -4
-10 4 -6 12 -4 21 5 9 8 23 15 32 15 15 0 15 2 2 11 -11 8 -9 9 10 3 14 -4 28
-11 31 -16 4 -7 9 -6 13 0 3 6 2 13 -4 17 -13 8 -13 25 1 25 5 0 8 -4 5 -9 -3
-5 4 -11 17 -15 32 -8 44 -7 27 4 -8 5 -12 12 -8 15 8 9 59 -6 53 -15 -8 -13
56 -23 68 -11 6 6 20 11 32 11 12 0 25 4 31 10 11 11 56 13 102 4 17 -3 32 -2
32 2 0 5 11 9 24 9 13 0 22 -3 19 -7 -2 -5 5 -8 17 -8 12 0 19 4 16 9 -3 5 4
11 16 14 12 4 25 2 29 -4 4 -7 15 -6 33 2 22 10 29 10 35 0 5 -8 11 -9 14 -4
4 6 30 11 59 12 111 3 203 12 211 20 5 5 -79 9 -185 10 -106 1 -202 3 -213 5
-11 3 -23 5 -27 5 -12 1 -9 41 2 41 6 0 10 -7 10 -15 0 -11 11 -15 38 -15 25
0 33 3 23 9 -7 5 -11 13 -7 19 3 6 -2 13 -11 15 -15 4 -15 6 5 12 32 10 9 37
-24 29 -27 -7 -34 12 -6 19 20 6 -1149 0 -1687 -9 l-364 -6 -23 -46 c-29 -56
-30 -71 -6 -79 23 -9 32 -23 32 -54 0 -30 -27 -60 -38 -42 -4 6 -15 7 -28 3
-15 -6 -26 -26 -38 -72 -10 -34 -26 -82 -37 -105 -10 -24 -19 -50 -19 -58 0
-8 -4 -15 -10 -15 -5 0 -16 -15 -25 -33 -44 -93 -315 -297 -359 -270 -21 14
-41 12 -78 -7 -20 -10 -39 -16 -42 -13 -3 3 -12 1 -20 -6 -17 -15 -170 -26
-220 -17 -22 4 -36 13 -36 22 0 8 -4 13 -8 10 -13 -8 -146 -17 -139 -9 4 3 -2
13 -14 21 -14 10 -24 11 -31 4 -12 -12 -25 -8 -123 40 -60 29 -73 32 -93 22
-14 -7 -19 -14 -13 -18 12 -7 10 -33 -2 -54 -11 -16 31 -68 59 -74 11 -3 29
-1 40 2 10 4 32 3 49 -1 16 -5 44 -6 62 -3 45 8 93 -4 86 -22 -3 -8 -11 -14
-19 -14 -10 0 -14 -14 -14 -50 0 -58 23 -89 68 -92 45 -2 46 -3 77 -34 l30
-30 -75 1 c-41 0 -86 -2 -100 -5 -17 -3 -24 -1 -22 8 1 6 -1 11 -5 10 -5 -1
-21 1 -38 4 -16 4 -52 10 -80 13 l-50 7 35 15 35 16 -70 13 c-38 7 -76 16 -85
20 -8 3 -33 7 -55 8 -22 1 -53 6 -70 10 -37 8 -69 -8 -45 -24 8 -5 31 -10 50
-11 29 0 31 -2 15 -9 -11 -5 -15 -9 -10 -9 6 -1 4 -5 -4 -10 -10 -7 24 -28
125 -78 204 -102 200 -100 229 -73 14 13 26 22 28 19 1 -2 9 -17 17 -32 35
-69 135 -95 235 -60 l50 18 -1 47 c0 36 -6 54 -24 73 l-23 25 38 0 c49 0 162
18 198 32 23 9 27 16 27 49 0 37 2 39 30 39 23 0 30 -4 30 -20 0 -11 -13 -29
-30 -42 -16 -12 -30 -27 -30 -32 1 -33 86 -96 129 -96 25 0 78 44 87 73 7 21
7 21 15 2 11 -30 11 -150 -2 -182 -5 -15 -22 -38 -36 -50 -31 -27 -34 -28 -27
-8 16 40 -35 146 -69 145 -7 0 -4 -5 6 -11 9 -5 24 -23 32 -39 36 -69 5 -146
-71 -175 -25 -9 -43 -19 -41 -22 8 -7 79 26 144 68 48 32 69 39 95 36 32 -4
33 -5 31 -43 -2 -23 -22 -77 -48 -129 -48 -98 -81 -130 -198 -194 -80 -44
-254 -80 -304 -62 -19 7 -37 11 -39 8 -3 -3 7 -33 21 -67 39 -94 145 -412 145
-438 0 -12 7 -38 14 -57 15 -35 12 -42 -12 -27 -7 5 -10 16 -6 25 7 18 -7 21
-41 8 -19 -8 -19 -8 2 -15 12 -4 38 -26 57 -48 34 -40 39 -61 11 -56 -14 3
-16 -7 -8 -30 6 -15 -15 -42 -32 -42 -17 0 -75 33 -75 43 0 4 -7 7 -15 7 -29
0 -75 30 -75 49 0 10 -7 21 -15 25 -9 3 -15 0 -15 -9 0 -19 2 -20 -61 14 -41
23 -50 31 -36 36 27 11 9 25 -23 19 -21 -5 -37 0 -62 19 -18 13 -54 34 -80 45
-25 11 -52 30 -58 42 -9 17 -14 19 -20 10 -14 -23 -142 33 -202 88 -24 23 -49
73 -72 150 -14 45 11 21 28 -28 14 -38 29 -58 66 -85 26 -19 54 -35 61 -35 32
0 77 40 94 83 15 40 15 47 1 80 -20 48 -49 55 -121 28 -54 -20 -95 -27 -95
-16 0 3 9 18 21 34 14 20 19 39 17 67 l-3 39 -12 -40 c-11 -36 -42 -75 -59
-75 -4 0 -4 18 -1 40 4 32 1 42 -12 50 -14 7 -21 32 -31 102 l-12 92 28 23
c75 61 84 71 84 100 0 55 -56 103 -121 103 -32 0 -32 0 -27 45 l6 45 -34 0
c-19 0 -34 5 -34 10 0 6 -13 10 -29 10 l-30 0 6 53 c3 33 0 64 -10 85 l-14 33
-17 -26 c-14 -21 -20 -24 -32 -14 -8 6 -14 18 -14 25 0 18 -11 18 -35 0 -16
-12 -17 -16 -6 -30 7 -9 20 -16 28 -16 10 0 5 -10 -14 -30 -23 -24 -36 -30
-72 -30 -30 0 -48 -5 -56 -17 -11 -15 -13 -15 -20 7 -5 16 -3 27 8 35 15 10
15 14 1 33 -19 27 -62 30 -60 5 0 -10 12 -35 25 -57 23 -37 24 -40 12 -135 -6
-53 -10 -119 -8 -148 3 -37 1 -53 -9 -57 -7 -3 -14 0 -16 6 -3 7 -15 5 -35 -6
-69 -35 -167 -9 -202 55 -12 21 -25 39 -27 39 -3 0 -3 -4 1 -9 3 -5 -9 -3 -26
6 -30 15 -33 15 -45 -2 -8 -10 -11 -21 -8 -24 4 -3 9 0 11 7 6 17 32 15 40 -4
3 -8 11 -13 18 -10 11 4 25 -13 25 -29 0 -12 -55 -14 -69 -2 -9 8 -24 17 -33
20 -22 8 -23 21 -3 37 21 17 19 42 -2 39 -10 -1 -27 2 -37 6 -13 6 -23 3 -31
-8 -15 -21 -44 -22 -51 -2 -6 15 36 89 91 159 59 76 109 128 113 117 6 -17 58
-13 94 8 18 10 67 26 109 35 47 10 84 24 94 36 17 19 17 21 0 40 -18 20 -17
20 10 20 16 0 36 6 44 14 28 24 66 27 104 7 37 -19 37 -19 52 2 18 26 10 38
-8 13 -13 -17 -15 -17 -35 9 -28 36 -28 87 0 126 12 16 23 42 24 57 4 87 7 96
39 106 15 4 32 -5 68 -39 l47 -46 0 39 c0 22 3 61 6 88 5 47 5 48 -10 24 -8
-14 -15 -42 -16 -62 0 -45 -8 -47 -48 -13 -17 14 -35 25 -40 25 -33 0 -9 73
27 85 26 8 61 65 61 99 0 15 6 26 14 26 43 0 60 112 31 206 -9 27 -24 91 -35
142 -11 52 -22 97 -25 102 -3 4 -22 6 -43 4 -34 -4 -39 -1 -72 42 -19 26 -44
56 -54 67 -26 28 -112 128 -241 282 -60 72 -114 134 -122 138 -7 4 -13 14 -13
22 0 7 -4 15 -8 17 -5 2 -37 38 -71 81 -34 42 -66 77 -69 77 -4 0 -16 14 -27
30 -11 17 -28 33 -38 36 -10 3 -16 8 -13 12 10 10 -25 41 -40 35 -8 -3 -14 0
-14 6 0 6 5 11 11 11 10 0 -80 119 -91 119 -3 0 -13 -6 -22 -13z m47 -38 l16
-33 -25 28 c-30 33 -34 28 -8 -11 l17 -27 -27 20 c-30 22 -35 40 -15 48 22 10
26 7 42 -25z m0 -78 c3 -10 14 -20 23 -22 11 -2 13 -6 6 -11 -6 -3 -24 5 -38
18 -15 14 -32 25 -39 25 -8 0 -7 3 2 9 19 12 39 4 46 -19z m-735 7 c0 -7 -9
-18 -20 -25 -11 -7 -20 -17 -20 -23 0 -5 4 -8 9 -4 5 3 12 1 16 -5 3 -5 -1
-10 -9 -10 -21 0 -30 18 -16 35 7 8 10 21 7 28 -3 8 3 13 14 14 10 1 19 -4 19
-10z m394 -35 c20 -9 19 -10 -6 -8 -17 0 -28 7 -28 15 0 10 -8 7 -25 -9 -31
-29 -33 -13 -3 25 21 27 22 27 31 8 5 -12 19 -25 31 -31z m26 28 c0 -5 -2 -10
-4 -10 -3 0 -8 5 -11 10 -3 6 -1 10 4 10 6 0 11 -4 11 -10z m-125 -10 c3 -5 1
-10 -4 -10 -6 0 -11 5 -11 10 0 6 2 10 4 10 3 0 8 -4 11 -10z m215 0 c0 -5 -4
-10 -10 -10 -5 0 -10 5 -10 10 0 6 5 10 10 10 6 0 10 -4 10 -10z m170 -6 c0
-8 -4 -12 -10 -9 -5 3 -10 10 -10 16 0 5 5 9 10 9 6 0 10 -7 10 -16z m-220 -4
c0 -5 -5 -10 -11 -10 -5 0 -7 5 -4 10 3 6 8 10 11 10 2 0 4 -4 4 -10z m-320
-20 c0 -5 -4 -10 -9 -10 -6 0 -13 5 -16 10 -3 6 1 10 9 10 9 0 16 -4 16 -10z
m130 3 c0 -5 -12 -16 -25 -26 -22 -15 -25 -16 -25 -2 0 8 7 15 15 15 8 0 15 5
15 10 0 6 5 10 10 10 6 0 10 -3 10 -7z m-105 -22 c-3 -6 -11 -11 -17 -11 -6 0
-6 6 2 15 14 17 26 13 15 -4z m-85 -1 c-20 -13 -43 -13 -35 0 3 6 16 10 28 10
18 0 19 -2 7 -10z m58 -35 c-9 -9 -30 14 -23 25 6 9 10 8 17 -4 6 -10 8 -19 6
-21z m282 21 c0 -8 -4 -18 -10 -21 -5 -3 -10 3 -10 14 0 12 5 21 10 21 6 0 10
-6 10 -14z m-100 -6 c0 -5 -4 -10 -10 -10 -5 0 -10 5 -10 10 0 6 5 10 10 10 6
0 10 -4 10 -10z m250 -10 c0 -5 -4 -10 -10 -10 -5 0 -10 5 -10 10 0 6 5 10 10
10 6 0 10 -4 10 -10z m-332 -20 c3 -9 -1 -11 -13 -6 -13 5 -16 2 -11 -11 4
-10 4 -14 0 -10 -4 4 -16 0 -26 -10 -25 -23 -23 -3 4 30 23 28 38 31 46 7z
m287 -59 c-3 -6 -16 -11 -28 -11 -21 1 -21 1 3 15 27 14 36 13 25 -4z m-621
-196 c-4 -8 -8 -15 -10 -15 -2 0 -4 7 -4 15 0 8 4 15 10 15 5 0 7 -7 4 -15z
m6 -74 c0 -5 -7 -11 -14 -14 -10 -4 -13 -1 -9 9 6 15 23 19 23 5z m-63 -27
c-3 -3 -12 -4 -19 -1 -8 3 -5 6 6 6 11 1 17 -2 13 -5z m93 -8 c0 -8 -61 -12
-66 -4 -3 4 11 8 30 8 20 0 36 -2 36 -4z m-6 -34 c2 -4 -6 -9 -20 -10 -13 -1
-24 3 -24 8 0 12 37 14 44 2z m1 -32 c3 -6 -4 -10 -17 -10 -18 0 -20 2 -8 10
19 12 18 12 25 0z m52 -6 c-3 -3 -12 -4 -19 -1 -8 3 -5 6 6 6 11 1 17 -2 13
-5z m-27 -35 c0 -6 -4 -7 -10 -4 -5 3 -10 11 -10 16 0 6 5 7 10 4 6 -3 10 -11
10 -16z m7770 11 c0 -5 -5 -10 -11 -10 -5 0 -7 5 -4 10 3 6 8 10 11 10 2 0 4
-4 4 -10z m-7810 -16 c0 -8 -4 -12 -10 -9 -5 3 -10 10 -10 16 0 5 5 9 10 9 6
0 10 -7 10 -16z m-27 -13 c6 -23 0 -31 -22 -31 -12 0 -13 2 -3 8 7 5 10 16 6
25 -3 9 -2 17 4 17 5 0 12 -9 15 -19z m107 -11 c0 -5 -4 -10 -10 -10 -5 0 -10
5 -10 10 0 6 5 10 10 10 6 0 10 -4 10 -10z m-37 -7 c-7 -2 -19 -2 -25 0 -7 3
-2 5 12 5 14 0 19 -2 13 -5z m0 -30 c-19 -15 -49 -17 -57 -4 -9 13 1 18 39 17
31 -1 33 -3 18 -13z m-83 -37 c0 -9 -30 -14 -35 -6 -4 6 3 10 14 10 12 0 21
-2 21 -4z m12 -19 c-12 -6 -22 -18 -22 -29 0 -10 -4 -18 -10 -18 -5 0 -10 5
-10 12 0 17 43 57 54 50 6 -3 0 -10 -12 -15z m23 -57 c3 -5 -1 -10 -10 -10
-10 0 -14 -5 -9 -12 5 -10 4 -10 -6 -1 -7 6 -9 16 -6 22 9 14 23 14 31 1z
m8036 -17 c-8 -15 -10 -15 -11 -2 0 17 10 32 18 25 2 -3 -1 -13 -7 -23z
m-8101 7 c0 -5 -4 -10 -10 -10 -5 0 -10 5 -10 10 0 6 5 10 10 10 6 0 10 -4 10
-10z m7880 -10 c0 -5 -5 -10 -11 -10 -5 0 -7 5 -4 10 3 6 8 10 11 10 2 0 4 -4
4 -10z m-2425 -50 c-3 -5 -14 -10 -23 -10 -15 0 -15 2 -2 10 20 13 33 13 25 0z
m-40 -30 c3 -5 1 -10 -4 -10 -6 0 -11 5 -11 10 0 6 2 10 4 10 3 0 8 -4 11 -10z
m79 -15 c18 -27 21 -45 7 -45 -5 0 -12 12 -16 27 -3 15 -12 31 -18 35 -9 6 -9
8 -1 8 7 0 19 -11 28 -25z m62 1 c15 -16 18 -26 6 -26 -4 0 -13 9 -20 20 -14
23 -7 26 14 6z m-5470 -11 c-3 -9 0 -15 9 -15 8 0 15 -4 15 -10 0 -5 -4 -10
-9 -10 -14 0 -33 28 -26 40 9 15 18 12 11 -5z m5241 -11 c-3 -3 -12 -4 -19 -1
-8 3 -5 6 6 6 11 1 17 -2 13 -5z m138 -14 c4 -6 -9 -10 -32 -9 -38 1 -38 1 -8
9 17 4 31 8 32 9 1 0 5 -3 8 -9z m2369 -28 c3 -5 -6 -19 -19 -30 -23 -20 -25
-20 -25 -4 0 29 32 53 44 34z m-7827 -108 c-3 -3 -12 -4 -19 -1 -8 3 -5 6 6 6
11 1 17 -2 13 -5z m7760 -48 c0 -8 -6 -12 -14 -9 -7 3 -13 9 -13 14 0 5 6 9
13 9 8 0 14 -6 14 -14z m-7747 -36 c0 -5 -4 -10 -10 -10 -5 0 -10 5 -10 10 0
6 5 10 10 10 6 0 10 -4 10 -10z m72 -32 c-19 -20 -22 -20 -22 -5 0 24 22 48
35 36 6 -6 1 -17 -13 -31z m-46 -35 c-3 -3 -13 0 -21 7 -13 10 -13 15 -3 21
13 8 35 -17 24 -28z m374 6 c0 -6 -4 -7 -10 -4 -5 3 -10 11 -10 16 0 6 5 7 10
4 6 -3 10 -11 10 -16z m-408 -24 c3 -13 1 -22 -3 -19 -9 5 -13 44 -5 44 2 0 6
-11 8 -25z m4458 15 c0 -5 -7 -10 -16 -10 -8 0 -12 5 -9 10 3 6 10 10 16 10 5
0 9 -4 9 -10z m-4365 -19 c3 -5 1 -12 -5 -16 -5 -3 -10 1 -10 9 0 18 6 21 15
7z m4046 -19 c7 -19 5 -22 -16 -22 -14 0 -25 4 -25 10 0 5 8 7 18 3 14 -5 15
-3 5 8 -16 16 -17 32 -1 27 6 -2 15 -14 19 -26z m239 8 c0 -5 -5 -10 -11 -10
-5 0 -7 5 -4 10 3 6 8 10 11 10 2 0 4 -4 4 -10z m-3180 -10 c0 -5 -4 -10 -10
-10 -5 0 -10 5 -10 10 0 6 5 10 10 10 6 0 10 -4 10 -10z m2847 -12 c-3 -8 -6
-5 -6 6 -1 11 2 17 5 13 3 -3 4 -12 1 -19z m155 6 c14 -14 20 -14 33 -4 8 7
21 10 29 7 7 -3 18 -1 24 5 6 6 16 7 22 3 9 -6 9 -10 -1 -17 -10 -7 -6 -8 13
-5 15 2 25 0 22 -5 -3 -5 0 -15 6 -23 8 -9 8 -20 2 -31 -6 -11 -11 -13 -16 -5
-4 6 -2 11 3 11 6 0 11 5 11 11 0 13 -62 39 -95 39 -23 0 -25 -3 -19 -27 4
-16 8 -30 10 -32 4 -4 23 4 46 21 30 22 31 0 2 -26 -17 -15 -36 -23 -46 -20
-10 3 -18 1 -18 -4 0 -5 9 -12 20 -15 11 -3 20 -1 20 4 0 5 17 0 38 -11 33
-18 38 -18 48 -5 15 20 34 19 34 -1 0 -8 5 -12 10 -9 6 4 8 10 5 15 -7 11 32
33 48 26 7 -2 4 -5 -5 -5 -10 -1 -18 -6 -18 -11 0 -6 26 -9 68 -8 49 2 66 0
65 -9 -2 -7 2 -13 8 -13 6 0 17 -7 26 -15 18 -19 43 -4 43 26 0 10 5 21 12 25
8 5 9 -2 5 -24 -4 -19 -2 -32 3 -32 6 0 11 -15 11 -32 1 -18 3 -25 6 -15 5 19
33 24 33 4 0 -7 -9 -18 -20 -25 -11 -7 -20 -22 -19 -35 0 -12 3 -16 6 -9 10
26 24 11 18 -20 -5 -27 -4 -30 5 -15 6 9 16 15 21 11 6 -3 1 -14 -11 -24 -13
-11 -17 -21 -10 -25 5 -3 10 -1 10 4 0 6 5 11 10 11 6 0 10 -7 10 -15 0 -8 6
-24 13 -35 10 -17 9 -22 -2 -29 -9 -6 -10 -11 -2 -15 15 -10 14 -43 -1 -49 -7
-3 -4 -6 7 -6 17 -1 17 -3 5 -11 -11 -7 -7 -10 20 -11 30 -2 31 -3 8 -6 -26
-4 -41 -23 -18 -23 6 0 10 -5 10 -11 0 -6 -6 -9 -14 -6 -8 3 -16 -2 -19 -14
-3 -10 -1 -19 4 -19 5 0 9 -8 9 -19 0 -28 26 -47 45 -31 21 17 20 -3 -1 -35
-15 -23 -15 -25 0 -31 17 -7 23 -64 6 -64 -16 0 -12 -58 6 -85 9 -14 20 -22
25 -19 11 6 11 -7 1 -23 -6 -9 -12 -8 -24 6 -8 10 -18 24 -21 32 -3 11 -6 10
-12 -4 -5 -12 0 -29 15 -49 20 -27 21 -34 10 -52 -7 -11 -14 -39 -15 -63 -1
-47 -9 -61 -21 -42 -4 8 -3 10 4 5 7 -4 12 -2 12 3 0 6 -6 11 -14 11 -15 0
-81 98 -79 118 0 6 -4 12 -10 12 -6 0 -34 24 -62 53 -44 47 -71 67 -175 138
-72 48 -392 169 -447 169 -11 0 -23 3 -27 7 -3 4 -14 7 -24 8 -9 1 -32 5 -50
9 -26 6 -31 11 -22 21 9 10 6 19 -9 34 -20 20 -20 21 -2 21 11 0 18 7 17 17
-1 18 50 38 59 23 10 -16 33 1 44 32 14 38 14 48 1 48 -5 0 -10 -7 -10 -15 0
-18 -20 -20 -20 -2 0 6 -9 1 -20 -13 -21 -28 -37 -22 -21 8 11 20 -2 42 -25
42 -7 0 -14 6 -17 13 -2 6 -8 8 -13 4 -5 -5 1 -17 15 -28 13 -11 21 -23 17
-26 -4 -4 -10 -2 -14 4 -4 6 -20 15 -36 19 -21 5 -27 4 -22 -5 4 -6 16 -11 27
-11 34 0 17 -58 -21 -73 -11 -4 -10 -6 5 -7 16 -1 14 -4 -10 -15 -29 -14 -29
-14 -5 -15 18 0 21 -3 11 -9 -16 -10 -6 -31 15 -31 15 0 19 -16 6 -24 -5 -3
-51 2 -103 10 -52 8 -113 18 -136 21 -24 3 -43 9 -43 13 0 10 26 20 53 20 17
0 19 2 8 9 -17 11 -7 41 14 41 9 0 13 5 10 10 -3 6 4 10 17 10 14 0 33 6 43
14 18 13 17 14 -11 29 -28 15 -28 16 -5 17 17 0 22 4 17 16 -3 8 -1 24 4 35
13 23 42 26 34 4 -4 -8 -12 -15 -20 -15 -8 0 -14 -4 -14 -10 0 -5 11 -10 25
-10 14 0 25 5 25 10 0 13 27 13 32 1 2 -5 20 -1 41 9 21 10 41 19 45 20 4 1 6
8 4 16 -2 8 3 14 11 14 8 0 22 9 31 19 13 15 24 17 45 11 26 -7 61 7 61 25 0
4 -6 3 -13 -3 -7 -6 -19 -7 -26 -3 -9 6 -5 10 13 15 18 4 26 13 26 29 0 33 19
47 62 47 21 0 38 4 38 9 0 5 8 7 18 4 10 -2 26 5 36 16 17 19 18 22 2 45 -25
40 -17 50 16 20z m-4122 -8 c0 -2 -7 -7 -16 -10 -8 -3 -12 -2 -9 4 6 10 25 14
25 6z m965 -6 c3 -5 1 -10 -4 -10 -6 0 -11 5 -11 10 0 6 2 10 4 10 3 0 8 -4
11 -10z m2650 -10 c-3 -5 -12 -10 -18 -10 -7 0 -6 4 3 10 19 12 23 12 15 0z
m245 0 c-19 -13 -30 -13 -30 0 0 6 10 10 23 10 18 0 19 -2 7 -10z m450 0 c0
-5 -2 -10 -4 -10 -3 0 -8 5 -11 10 -3 6 -1 10 4 10 6 0 11 -4 11 -10z m-116
-15 c-6 -16 -24 -21 -24 -7 0 11 11 22 21 22 5 0 6 -7 3 -15z m3266 5 c0 -5
-5 -10 -11 -10 -5 0 -7 5 -4 10 3 6 8 10 11 10 2 0 4 -4 4 -10z m-6454 -37
c-1 -33 -10 -43 -19 -20 -3 6 -6 -1 -6 -16 -1 -24 1 -26 18 -17 28 14 47 13
66 -6 12 -12 19 -14 27 -6 8 8 4 14 -15 23 -15 7 -24 16 -21 21 3 5 17 2 30
-6 27 -18 44 -20 44 -6 0 6 -9 10 -20 10 -34 0 -25 37 10 42 32 5 42 -8 34
-44 -3 -13 -5 -40 -5 -60 0 -22 -5 -38 -12 -38 -8 0 -8 -3 1 -12 16 -16 15
-31 -2 -25 -12 5 -12 2 -2 -18 9 -17 11 -62 8 -152 -2 -70 -6 -130 -8 -132 -2
-2 -8 7 -14 20 l-10 24 3 -24 c1 -13 -3 -26 -9 -28 -7 -2 -10 9 -9 31 2 23 -2
36 -11 40 -8 3 -14 1 -14 -4 0 -6 5 -10 11 -10 5 0 7 -5 4 -10 -4 -6 -16 -8
-27 -4 -13 4 -18 2 -14 -4 7 -12 -18 -35 -27 -25 -4 3 -7 -1 -7 -11 0 -9 10
-27 23 -40 l24 -23 -24 0 c-13 0 -21 2 -18 5 8 8 -26 42 -36 36 -5 -3 -9 7
-10 23 l-1 28 -8 -27 c-5 -16 -7 -40 -5 -54 2 -19 -3 -28 -16 -31 -10 -3 -16
-10 -13 -15 3 -5 12 -7 20 -4 7 3 16 1 19 -4 4 -6 -8 -10 -26 -10 l-31 0 6 53
c3 28 6 90 7 137 2 123 20 293 32 308 6 7 12 37 13 65 2 29 3 53 3 54 1 1 9 1
19 0 14 -1 18 -9 18 -34z m3081 31 c-3 -3 -12 -4 -19 -1 -8 3 -5 6 6 6 11 1
17 -2 13 -5z m423 -10 c0 -8 -5 -12 -10 -9 -6 4 -8 11 -5 16 9 14 15 11 15 -7z
m-4525 -4 c3 -5 1 -10 -4 -10 -6 0 -11 5 -11 10 0 6 2 10 4 10 3 0 8 -4 11
-10z m3677 -14 c6 -28 -18 -40 -46 -24 -9 5 -25 6 -36 3 -15 -5 -18 -3 -14 9
3 9 14 16 24 16 11 0 22 5 25 10 12 20 43 10 47 -14z m878 14 c0 -5 -4 -10
-10 -10 -5 0 -10 5 -10 10 0 6 5 10 10 10 6 0 10 -4 10 -10z m3040 0 c0 -5 -4
-10 -10 -10 -5 0 -10 5 -10 10 0 6 5 10 10 10 6 0 10 -4 10 -10z m40 0 c0 -5
-4 -10 -10 -10 -5 0 -10 5 -10 10 0 6 5 10 10 10 6 0 10 -4 10 -10z m-7690
-25 c0 -8 -4 -15 -10 -15 -5 0 -10 7 -10 15 0 8 5 15 10 15 6 0 10 -7 10 -15z
m3494 -11 c3 -8 3 -14 0 -14 -12 0 -44 21 -44 29 0 14 38 1 44 -15z m366 6 c0
-5 -5 -10 -11 -10 -5 0 -7 5 -4 10 3 6 8 10 11 10 2 0 4 -4 4 -10z m3664 -6
c3 -8 2 -12 -4 -9 -6 3 -10 10 -10 16 0 14 7 11 14 -7z m-3214 -4 c-20 -13
-33 -13 -25 0 3 6 14 10 23 10 15 0 15 -2 2 -10z m249 6 c-12 -10 -59 -15 -59
-6 0 5 14 10 32 10 17 0 29 -2 27 -4z m79 -7 c-10 -5 -26 -5 -40 0 -20 7 -17
9 16 9 29 0 36 -2 24 -9z m-820 -8 c2 -1 0 -6 -3 -11 -4 -7 -13 -6 -27 1 -18
9 -19 8 -13 -10 4 -12 2 -21 -4 -21 -6 0 -11 5 -11 10 0 6 -7 10 -15 10 -21 0
-19 18 3 23 13 3 52 2 70 -2z m82 -1 c0 -5 -2 -10 -4 -10 -3 0 -8 5 -11 10 -3
6 -1 10 4 10 6 0 11 -4 11 -10z m16 -28 c-8 -9 -18 -13 -22 -10 -3 4 3 15 13
25 10 10 20 15 22 10 2 -5 -4 -16 -13 -25z m-3922 19 c3 -4 3 -11 0 -14 -8 -8
-34 3 -34 14 0 11 27 12 34 0z m3868 -13 c-6 -6 -15 -8 -19 -4 -4 4 -1 11 7
16 19 12 27 3 12 -12z m478 12 c0 -5 -4 -10 -9 -10 -6 0 -13 5 -16 10 -3 6 1
10 9 10 9 0 16 -4 16 -10z m-709 -17 c12 -15 12 -16 -2 -11 -13 5 -16 2 -12
-12 4 -14 0 -17 -19 -13 -23 4 -24 2 -20 -32 5 -43 -14 -46 -35 -5 -6 12 -17
27 -25 32 -9 6 -6 7 9 3 17 -5 22 -3 18 8 -4 9 1 13 17 13 12 -1 23 5 24 12 2
21 4 22 18 22 7 0 20 -8 27 -17z m77 9 c9 -6 6 -12 -13 -20 -14 -6 -25 -16
-25 -22 0 -5 -4 -10 -8 -10 -5 0 -7 14 -4 30 4 30 23 38 50 22z m902 -13 c0
-11 -4 -17 -10 -14 -5 3 -10 13 -10 21 0 8 5 14 10 14 6 0 10 -9 10 -21z
m-1317 -3 c4 -10 1 -13 -8 -9 -8 3 -12 9 -9 14 7 12 11 11 17 -5z m587 -18 c0
-4 -9 -8 -21 -8 -11 0 -18 4 -15 8 3 5 12 9 21 9 8 0 15 -4 15 -9z m-100 -19
c0 -5 5 -7 10 -4 6 4 17 2 24 -4 8 -7 18 -10 22 -9 5 2 10 -1 12 -6 1 -5 -17
-9 -40 -9 -37 0 -43 3 -44 21 -1 12 3 22 7 22 5 0 9 -5 9 -11z m935 1 c-3 -5
-11 -10 -16 -10 -6 0 -7 5 -4 10 3 6 11 10 16 10 6 0 7 -4 4 -10z m-3205 -21
c0 -14 -17 -10 -23 5 -4 10 -1 13 9 9 7 -3 14 -9 14 -14z m2198 9 c-6 -16 -58
-23 -58 -8 0 7 8 9 20 5 11 -4 20 -2 20 4 0 6 5 11 11 11 6 0 9 -6 7 -12z m42
-4 c0 -8 -4 -12 -10 -9 -5 3 -10 10 -10 16 0 5 5 9 10 9 6 0 10 -7 10 -16z
m-115 -17 c0 -8 17 -11 48 -10 37 2 47 -1 47 -13 0 -10 -6 -14 -14 -11 -8 3
-17 1 -19 -6 -3 -9 -8 -8 -21 2 -16 13 -17 13 -14 -5 2 -13 -3 -20 -19 -22
-14 -2 -20 -8 -16 -18 3 -8 -1 -14 -10 -14 -10 0 -13 8 -9 25 2 14 8 25 13 25
4 0 5 17 2 38 -3 21 -2 34 3 29 5 -5 9 -14 9 -20z m-171 -2 c3 -9 -1 -18 -10
-22 -19 -7 -39 11 -30 26 10 16 33 13 40 -4z m-3094 -4 c0 -5 3 -16 6 -24 3
-8 -2 -17 -10 -20 -12 -5 -16 1 -16 23 0 17 5 30 10 30 6 0 10 -4 10 -9z
m1080 -26 c-7 -9 -15 -13 -19 -10 -3 3 1 10 9 15 21 14 24 12 10 -5z m1757 -7
c-3 -8 -6 -5 -6 6 -1 11 2 17 5 13 3 -3 4 -12 1 -19z m47 7 c-4 -8 -11 -15
-16 -15 -6 0 -5 6 2 15 7 8 14 15 16 15 2 0 1 -7 -2 -15z m116 -7 c0 -9 3 -8
10 2 7 11 12 12 20 4 8 -8 7 -14 -5 -24 -8 -7 -15 -9 -15 -5 0 5 -9 0 -20 -10
-18 -16 -20 -16 -20 -2 0 10 6 17 13 18 9 0 9 2 -1 6 -6 2 -10 9 -6 14 8 13
24 11 24 -3z m475 2 c3 -5 1 -10 -4 -10 -6 0 -11 5 -11 10 0 6 2 10 4 10 3 0
8 -4 11 -10z m-2425 -15 c0 -2 -6 -5 -13 -8 -8 -3 -14 1 -14 8 0 7 6 11 14 8
7 -3 13 -6 13 -8z m2350 11 c0 -3 -4 -8 -10 -11 -5 -3 -10 -1 -10 4 0 6 5 11
10 11 6 0 10 -2 10 -4z m950 -6 c0 -5 -4 -10 -10 -10 -5 0 -10 5 -10 10 0 6 5
10 10 10 6 0 10 -4 10 -10z m-1521 -54 c0 -6 -3 -5 -6 2 -2 6 -18 12 -34 12
-31 0 -36 9 -17 28 9 9 17 7 35 -10 13 -12 23 -26 22 -32z m80 12 c2 -24 3
-58 3 -75 -1 -37 4 -40 36 -17 28 19 44 10 17 -10 -18 -13 -18 -14 1 -19 10
-3 34 -4 52 -3 18 2 35 -1 38 -6 3 -4 -5 -8 -18 -9 l-23 0 24 -10 c19 -8 29
-5 47 11 14 14 24 18 29 11 3 -6 15 -11 26 -11 10 0 19 -4 19 -10 0 -5 8 -6
18 -3 16 6 16 6 -1 -11 -13 -13 -26 -17 -50 -12 -18 3 -68 7 -111 9 -49 2 -81
8 -84 15 -2 7 -8 12 -13 12 -6 0 -8 -4 -4 -9 3 -5 -9 -10 -27 -9 -23 0 -40 8
-55 26 -18 22 -25 24 -35 14 -11 -11 -10 -15 5 -23 9 -6 17 -19 17 -31 0 -20
-1 -20 -18 -5 -21 19 -48 22 -57 7 -3 -5 -15 -15 -26 -21 -19 -10 -20 -9 -5
18 17 33 6 63 -24 63 -10 0 -26 10 -34 22 -15 21 -14 23 12 40 22 15 29 15 40
4 11 -11 11 -18 3 -35 -18 -32 1 -25 40 15 27 28 39 34 61 30 16 -3 29 0 32 7
2 7 5 2 5 -9 1 -26 31 -41 42 -22 5 7 7 32 4 56 -2 23 0 42 4 42 5 0 9 -19 10
-42z m-2904 13 c-3 -6 -11 -8 -17 -5 -6 4 -5 9 3 15 16 10 23 4 14 -10z m922
-3 c-3 -8 -6 -5 -6 6 -1 11 2 17 5 13 3 -3 4 -12 1 -19z m-1205 -24 c4 -36 4
-36 -13 -15 -10 12 -15 29 -12 36 9 26 21 16 25 -21z m3388 -3 c0 -6 -4 -11
-10 -11 -5 0 -10 7 -10 15 0 8 -5 15 -11 15 -5 0 -7 5 -4 10 7 11 35 -12 35
-29z m-3373 7 c-3 -8 -6 -5 -6 6 -1 11 2 17 5 13 3 -3 4 -12 1 -19z m2053 18
c0 -3 -4 -8 -10 -11 -5 -3 -10 -1 -10 4 0 6 5 11 10 11 6 0 10 -2 10 -4z
m1147 -28 c-3 -7 -5 -2 -5 12 0 14 2 19 5 13 2 -7 2 -19 0 -25z m268 22 c3 -5
1 -10 -4 -10 -6 0 -11 5 -11 10 0 6 2 10 4 10 3 0 8 -4 11 -10z m-3575 -20 c0
-11 -4 -20 -9 -20 -5 0 -7 9 -4 20 3 11 7 20 9 20 2 0 4 -9 4 -20z m3390 16
c0 -3 -4 -8 -10 -11 -5 -3 -10 -1 -10 4 0 6 5 11 10 11 6 0 10 -2 10 -4z
m-280 -34 c0 -15 -2 -15 -10 -2 -13 20 -13 33 0 25 6 -3 10 -14 10 -23z m245
-2 c-3 -5 -11 -10 -16 -10 -6 0 -7 5 -4 10 3 6 11 10 16 10 6 0 7 -4 4 -10z
m-1985 -6 c0 -8 -19 -13 -24 -6 -3 5 1 9 9 9 8 0 15 -2 15 -3z m2270 2 c0 -2
-7 -7 -16 -10 -8 -3 -12 -2 -9 4 6 10 25 14 25 6z m-1260 -27 c0 -6 -4 -7 -10
-4 -5 3 -10 11 -10 16 0 6 5 7 10 4 6 -3 10 -11 10 -16z m935 12 c3 -5 1 -12
-5 -16 -5 -3 -10 1 -10 9 0 18 6 21 15 7z m65 -11 c0 -5 -4 -10 -10 -10 -5 0
-10 5 -10 10 0 6 5 10 10 10 6 0 10 -4 10 -10z m120 0 c0 -5 7 -10 15 -10 8 0
15 -4 15 -9 0 -5 -20 -9 -45 -9 -49 1 -51 2 -32 23 14 16 47 20 47 5z m-2170
-14 c0 -7 -7 -19 -15 -26 -12 -10 -15 -9 -15 4 0 11 5 14 12 10 8 -5 9 -2 5 9
-3 10 -2 17 3 17 6 0 10 -6 10 -14z m1685 -31 c36 -37 33 -55 -9 -55 -19 0
-38 5 -41 10 -3 6 3 10 14 10 29 0 36 18 15 41 -25 28 -9 23 21 -6z m860 4
c-10 -15 -25 -10 -19 6 4 8 10 12 15 9 5 -3 7 -10 4 -15z m-3851 -25 c3 -8 2
-12 -4 -9 -6 3 -10 10 -10 16 0 14 7 11 14 -7z m2956 6 c0 -5 -4 -10 -9 -10
-6 0 -13 5 -16 10 -3 6 1 10 9 10 9 0 16 -4 16 -10z m600 0 c0 -5 -2 -10 -4
-10 -3 0 -8 5 -11 10 -3 6 -1 10 4 10 6 0 11 -4 11 -10z m1177 -12 c-3 -8 -6
-5 -6 6 -1 11 2 17 5 13 3 -3 4 -12 1 -19z m-4400 -30 c-3 -8 -6 -5 -6 6 -1
11 2 17 5 13 3 -3 4 -12 1 -19z m2533 13 c0 -10 -25 -21 -48 -21 -15 1 -14 3
2 15 22 17 46 20 46 6z m-2843 -17 c0 -6 -9 -9 -19 -6 -23 6 -23 18 0 18 10 0
19 -5 19 -12z m2493 -11 c13 -13 13 -15 -5 -10 -11 3 -38 8 -59 12 -29 5 -36
9 -25 16 18 12 70 1 89 -18z m305 -23 c35 -33 31 -47 -17 -61 -39 -11 -41 -13
-18 -18 35 -9 36 -35 3 -51 -40 -18 -218 -26 -238 -10 -30 25 -16 37 50 43 78
6 105 25 105 74 0 18 -4 33 -10 33 -5 0 -10 5 -10 11 0 22 107 5 135 -21z
m4628 23 c-13 -2 -33 -2 -45 0 -13 2 -3 4 22 4 25 0 35 -2 23 -4z m-73 -7 c0
-8 -61 -12 -66 -4 -3 4 11 8 30 8 20 0 36 -2 36 -4z m-4256 -12 c30 -12 17
-50 -40 -112 -55 -61 -77 -72 -118 -56 -22 9 -20 28 8 72 31 49 67 81 102 92
16 4 30 9 31 9 1 1 8 -2 17 -5z m4123 0 c-3 -3 -12 -4 -19 -1 -8 3 -5 6 6 6
11 1 17 -2 13 -5z m-6111 -32 c-3 -3 -1 -10 4 -17 7 -8 5 -12 -5 -12 -9 0 -14
9 -13 23 1 12 6 20 11 17 4 -3 6 -8 3 -11z m6322 -9 c-10 -2 -26 -2 -35 0 -10
3 -2 5 17 5 19 0 27 -2 18 -5z m-78 -7 c0 -8 -51 -13 -56 -5 -3 5 9 9 25 9 17
0 31 -2 31 -4z m-730 -26 c0 -5 -4 -10 -10 -10 -5 0 -10 5 -10 10 0 6 5 10 10
10 6 0 10 -4 10 -10z m-5605 -20 c3 -5 1 -10 -4 -10 -6 0 -11 5 -11 10 0 6 2
10 4 10 3 0 8 -4 11 -10z m6428 -7 c-7 -2 -21 -2 -30 0 -10 3 -4 5 12 5 17 0
24 -2 18 -5z m-111 -15 c-17 -8 -26 -8 -34 0 -9 9 -4 12 23 11 32 0 33 -1 11
-11z m-6032 -38 c-42 -32 -108 -65 -117 -57 -4 5 -1 13 7 18 11 8 10 9 -7 4
-33 -9 -28 2 9 21 42 22 76 32 108 33 l25 1 -25 -20z m6143 -7 c-7 -2 -19 -2
-25 0 -7 3 -2 5 12 5 14 0 19 -2 13 -5z m-98 -13 c-28 -12 -45 -12 -45 0 0 6
15 10 33 9 27 0 29 -2 12 -9z m-5123 -25 c16 -21 7 -35 -20 -35 -30 0 -52 16
-52 37 0 15 61 13 72 -2z m308 2 c41 -14 66 -53 57 -88 -7 -29 -62 -59 -108
-59 -94 0 -162 87 -112 142 19 21 107 24 163 5z m4938 -24 c-10 -2 -28 -2 -40
0 -13 2 -5 4 17 4 22 1 32 -1 23 -4z m-5812 -40 c11 -59 -11 -87 -71 -91 l-49
-3 41 44 c22 24 44 54 48 66 10 32 23 25 31 -16z m5690 22 c-19 -14 -36 -12
-36 6 0 5 12 9 28 9 26 -1 26 -1 8 -15z m-716 -5 c0 -5 -4 -10 -10 -10 -5 0
-10 5 -10 10 0 6 5 10 10 10 6 0 10 -4 10 -10z m848 -37 c-10 -2 -26 -2 -35 0
-10 3 -2 5 17 5 19 0 27 -2 18 -5z m-69 -7 c-2 -2 -26 -7 -53 -10 -33 -5 -46
-4 -41 3 3 6 27 11 52 11 26 0 44 -2 42 -4z m-769 -10 c0 -3 -4 -8 -10 -11 -5
-3 -10 -1 -10 4 0 6 5 11 10 11 6 0 10 -2 10 -4z m843 -43 c-7 -2 -21 -2 -30
0 -10 3 -4 5 12 5 17 0 24 -2 18 -5z m-123 -13 c0 -6 -28 -9 -67 -8 l-68 1 60
7 c33 4 63 7 68 8 4 1 7 -2 7 -8z m53 3 c-7 -2 -21 -2 -30 0 -10 3 -4 5 12 5
17 0 24 -2 18 -5z m80 -50 c-7 -2 -19 -2 -25 0 -7 3 -2 5 12 5 14 0 19 -2 13
-5z m-65 -10 c-16 -2 -40 -2 -55 0 -16 2 -3 4 27 4 30 0 43 -2 28 -4z m-131
-9 c-3 -3 -12 -4 -19 -1 -8 3 -5 6 6 6 11 1 17 -2 13 -5z m40 0 c-3 -3 -12 -4
-19 -1 -8 3 -5 6 6 6 11 1 17 -2 13 -5z m-5470 -96 c35 -33 30 -74 -14 -115
-35 -34 -37 -34 -45 -14 -4 12 -10 51 -14 86 l-7 65 28 0 c16 0 39 -10 52 -22z
m3069 -191 c2 -74 0 -146 -5 -158 -5 -15 -4 -30 3 -41 16 -27 -5 -43 -34 -26
-18 10 -24 10 -27 1 -8 -23 -25 -14 -17 10 4 12 7 27 7 33 0 6 9 9 20 6 14 -3
18 -1 13 6 -4 7 -14 12 -22 12 -8 0 -14 5 -14 11 0 5 -4 7 -10 4 -6 -4 -10 5
-10 19 l0 26 30 -32 c17 -17 34 -28 38 -23 4 4 1 10 -5 12 -7 3 -13 11 -13 19
0 8 -4 14 -9 14 -11 0 -9 19 3 39 7 11 4 13 -14 8 -17 -4 -23 -1 -28 16 -5 20
-6 20 -13 1 -4 -10 -5 -29 -2 -41 3 -14 0 -23 -7 -23 -7 0 -10 6 -7 14 3 7 0
19 -6 25 -8 8 -8 11 1 11 7 0 12 5 12 11 0 5 -4 8 -9 4 -5 -3 -9 8 -9 25 1 29
18 44 18 16 0 -8 8 -13 18 -11 9 2 26 4 37 5 11 1 14 4 8 7 -16 6 -17 33 -2
33 5 0 8 4 5 9 -3 5 1 32 10 61 24 81 36 50 40 -103z m-56 121 c0 -11 -22 -10
-39 1 -10 7 -7 9 12 8 15 -1 27 -5 27 -9z m-124 -13 c14 -11 15 -14 4 -15 -18
0 37 -30 56 -30 23 0 16 -18 -8 -22 -18 -2 -23 -9 -21 -31 2 -36 -4 -34 -22 8
-8 19 -22 51 -30 70 -16 38 -10 44 21 20z m44 11 c0 -3 -4 -8 -10 -11 -5 -3
-10 -1 -10 4 0 6 5 11 10 11 6 0 10 -2 10 -4z m2223 -27 c-16 -16 -133 -15
-133 1 0 6 24 10 53 10 28 0 59 5 67 10 17 11 28 -6 13 -21z m-2193 11 c0 -5
-5 -10 -11 -10 -5 0 -7 5 -4 10 3 6 8 10 11 10 2 0 4 -4 4 -10z m40 -9 c0 -5
-7 -12 -16 -15 -14 -5 -15 -4 -4 9 14 17 20 19 20 6z m-23 -278 c1 -24 1 -25
-7 -8 -11 26 -12 35 -2 35 4 0 8 -12 9 -27z m92 -69 c2 -2 2 -7 -2 -10 -3 -3
-16 2 -29 11 l-23 17 25 -7 c14 -4 27 -9 29 -11z m-59 -34 c0 -13 -1 -13 -10
0 -5 8 -10 22 -10 30 0 13 1 13 10 0 5 -8 10 -22 10 -30z m38 0 c14 0 18 -11
19 -53 2 -52 1 -54 -23 -49 -13 2 -25 12 -25 21 -4 55 1 124 8 99 2 -10 12
-18 21 -18z m32 -165 c0 -5 -5 -3 -10 5 -5 8 -10 20 -10 25 0 6 5 3 10 -5 5
-8 10 -19 10 -25z m-11 -36 c3 36 12 -3 16 -70 l5 -74 -20 75 c-10 41 -19 84
-18 95 0 13 3 9 8 -10 4 -16 8 -24 9 -16z m-1101 -120 c2 -5 8 -9 13 -9 6 0 7
5 4 10 -7 12 635 3 646 -9 7 -8 42 -172 37 -176 -2 -2 -21 0 -43 5 -66 15
-615 14 -649 -1 -23 -11 -29 -10 -36 1 -7 11 -11 11 -24 1 -14 -12 -16 -10
-16 8 0 12 -4 30 -9 39 -5 9 -11 47 -14 83 l-5 66 46 -5 c26 -3 49 -9 50 -13z
m3752 -299 c0 -5 -11 -10 -25 -10 -14 0 -25 5 -25 10 0 6 11 10 25 10 14 0 25
-4 25 -10z m39 -8 c13 -25 -9 -53 -37 -46 -13 4 -19 11 -15 20 4 11 8 12 19 3
18 -15 30 -4 16 14 -7 8 -9 17 -5 20 9 10 11 9 22 -11z m78 -18 c-3 -3 -12 -4
-19 -1 -8 3 -5 6 6 6 11 1 17 -2 13 -5z m-1549 -32 c6 -18 -15 -14 -22 4 -4
10 -1 14 6 12 6 -2 14 -10 16 -16z m802 2 c0 -2 -15 -4 -32 -4 -23 0 -29 3
-19 9 12 8 51 4 51 -5z m-83 0 c-3 -3 -12 -4 -19 -1 -8 3 -5 6 6 6 11 1 17 -2
13 -5z m-1624 -11 c-7 -2 -19 -2 -25 0 -7 3 -2 5 12 5 14 0 19 -2 13 -5z m344
1 c-3 -3 -12 -4 -19 -1 -8 3 -5 6 6 6 11 1 17 -2 13 -5z m393 -19 c0 -8 -4
-15 -10 -15 -5 0 -10 7 -10 15 0 8 5 15 10 15 6 0 10 -7 10 -15z m-143 -91
c-3 -3 -12 -4 -19 -1 -8 3 -5 6 6 6 11 1 17 -2 13 -5z m1976 -1649 c-2 -82 -4
-154 -7 -160 -2 -6 -28 -9 -59 -7 -69 5 -83 25 -31 47 20 8 33 19 29 25 -3 5
1 10 9 10 19 0 21 16 4 23 -8 3 -6 6 5 6 25 1 21 21 -5 22 l-23 0 23 9 c27 12
29 24 2 15 -11 -4 -20 -2 -20 4 0 6 6 11 13 11 9 0 8 3 -2 9 -7 5 -10 14 -7
20 4 6 0 11 -11 11 -17 1 -17 2 1 15 19 15 19 15 -5 15 -23 1 -23 1 -4 12 19
11 19 11 0 19 -17 7 -18 8 -2 8 18 1 25 21 6 21 -5 0 -7 5 -4 11 4 5 26 9 48
7 l42 -3 -2 -150z m177 139 c0 -14 -2 -15 -17 -3 -15 12 -16 12 -10 -3 8 -23
5 -23 -16 2 -16 19 -16 20 13 20 21 0 30 -5 30 -16z m-136 -279 c-4 -8 -7 -15
-9 -15 -2 0 -5 7 -9 15 -3 9 0 15 9 15 9 0 12 -6 9 -15z"/>
<path d="M4240 5010 c0 -5 5 -10 11 -10 5 0 7 5 4 10 -3 6 -8 10 -11 10 -2 0
-4 -4 -4 -10z"/>
<path d="M4245 4960 c-4 -16 -11 -30 -15 -30 -5 0 -6 -8 -3 -17 6 -15 4 -16
-8 -6 -12 10 -18 10 -27 1 -9 -9 -12 -9 -12 0 0 7 -9 12 -20 12 -15 0 -20 -7
-20 -25 0 -14 -4 -25 -10 -25 -5 0 -10 11 -10 25 0 14 -5 25 -11 25 -8 0 -10
-14 -6 -39 6 -44 -7 -55 -49 -45 -31 8 -31 -8 0 -22 17 -8 28 -8 35 -1 7 7 15
6 26 -3 12 -10 18 -10 30 0 12 10 15 10 15 -4 0 -9 -5 -16 -11 -16 -5 0 -7 -5
-3 -12 5 -8 17 0 36 23 16 19 36 35 46 35 9 1 26 5 36 10 14 5 17 4 12 -4 -12
-20 2 -13 28 13 14 14 30 25 36 25 5 0 9 5 8 12 -2 6 6 14 17 16 51 10 30 36
-43 53 -29 6 -35 4 -39 -12 -3 -10 -12 -19 -21 -19 -12 0 -13 3 -4 12 14 14
16 48 3 48 -5 0 -12 -13 -16 -30z m105 -20 c0 -5 8 -10 17 -10 9 0 14 -2 11
-5 -8 -9 -58 6 -58 16 0 5 7 9 15 9 8 0 15 -4 15 -10z m-36 -16 c10 -27 7 -36
-9 -20 -8 8 -15 19 -15 25 0 17 17 13 24 -5z m-34 -30 c0 -10 -32 -38 -46 -40
-8 -1 -14 4 -14 12 0 8 9 14 20 14 11 0 20 5 20 10 0 6 5 10 10 10 6 0 10 -3
10 -6z m-113 -26 c-3 -8 -6 -5 -6 6 -1 11 2 17 5 13 3 -3 4 -12 1 -19z m28
-28 c-3 -5 -12 -10 -18 -10 -7 0 -6 4 3 10 19 12 23 12 15 0z"/>
<path d="M4240 4815 c0 -8 5 -15 10 -15 6 0 10 7 10 15 0 8 -4 15 -10 15 -5 0
-10 -7 -10 -15z"/>
<path d="M4210 4810 c0 -5 5 -10 10 -10 6 0 10 5 10 10 0 6 -4 10 -10 10 -5 0
-10 -4 -10 -10z"/>
<path d="M4095 4791 c-6 -11 9 -23 19 -14 9 9 7 23 -3 23 -6 0 -12 -4 -16 -9z"/>
<path d="M4013 4783 c-7 -2 -13 -8 -13 -13 0 -10 38 -1 46 11 6 10 -13 11 -33
2z"/>
<path d="M4190 4775 c-8 -9 -8 -15 -2 -15 12 0 26 19 19 26 -2 2 -10 -2 -17
-11z"/>
<path d="M3790 4740 c0 -5 5 -10 10 -10 6 0 10 5 10 10 0 6 -4 10 -10 10 -5 0
-10 -4 -10 -10z"/>
<path d="M3700 4681 c0 -5 11 -8 24 -7 13 0 22 4 19 9 -6 10 -43 9 -43 -2z"/>
<path d="M3950 4660 c0 -5 5 -10 10 -10 6 0 10 5 10 10 0 6 -4 10 -10 10 -5 0
-10 -4 -10 -10z"/>
<path d="M4775 4189 c-4 -6 -5 -12 -2 -15 2 -3 7 2 10 11 7 17 1 20 -8 4z"/>
<path d="M1135 4940 c3 -5 15 -10 25 -10 10 0 22 5 25 10 4 6 -7 10 -25 10
-18 0 -29 -4 -25 -10z"/>
<path d="M1148 4913 c7 -3 16 -2 19 1 4 3 -2 6 -13 5 -11 0 -14 -3 -6 -6z"/>
<path d="M1130 4860 c0 -5 5 -10 10 -10 6 0 10 5 10 10 0 6 -4 10 -10 10 -5 0
-10 -4 -10 -10z"/>
<path d="M1170 4849 c0 -5 5 -7 10 -4 6 3 10 8 10 11 0 2 -4 4 -10 4 -5 0 -10
-5 -10 -11z"/>
<path d="M1071 4834 c0 -11 3 -14 6 -6 3 7 2 16 -1 19 -3 4 -6 -2 -5 -13z"/>
<path d="M1237 4753 c3 -7 6 -13 8 -13 1 0 7 6 13 13 8 10 6 13 -7 13 -11 0
-17 -6 -14 -13z"/>
<path d="M1190 4720 c-6 -11 -8 -20 -6 -20 3 0 10 9 16 20 6 11 8 20 6 20 -3
0 -10 -9 -16 -20z"/>
<path d="M1240 4638 c0 -36 4 -35 14 5 4 16 2 27 -4 27 -5 0 -10 -14 -10 -32z"/>
<path d="M1145 4599 c-4 -6 -5 -12 -2 -15 2 -3 7 2 10 11 7 17 1 20 -8 4z"/>
<path d="M3745 5020 c-3 -5 -1 -10 4 -10 6 0 11 5 11 10 0 6 -2 10 -4 10 -3 0
-8 -4 -11 -10z"/>
<path d="M3250 4711 c0 -5 7 -14 15 -21 12 -10 15 -10 15 3 0 8 -7 17 -15 21
-8 3 -15 2 -15 -3z"/>
<path d="M3520 4650 c0 -5 5 -10 10 -10 6 0 10 5 10 10 0 6 -4 10 -10 10 -5 0
-10 -4 -10 -10z"/>
<path d="M3560 4640 c0 -5 7 -10 16 -10 8 0 12 5 9 10 -3 6 -10 10 -16 10 -5
0 -9 -4 -9 -10z"/>
<path d="M3981 3267 c2 -1 15 -11 29 -22 l25 -20 -19 23 c-11 12 -24 22 -29
22 -6 0 -8 -1 -6 -3z"/>
<path d="M3896 3252 c-3 -5 -1 -22 4 -38 8 -29 8 -29 9 9 1 36 -3 45 -13 29z"/>
<path d="M4120 3233 c0 -4 5 -15 10 -23 8 -13 10 -13 10 2 0 9 -4 20 -10 23
-5 3 -10 3 -10 -2z"/>
<path d="M4422 3223 c5 -25 28 -28 28 -4 0 12 -6 21 -16 21 -9 0 -14 -7 -12
-17z"/>
<path d="M4470 3232 c0 -5 7 -13 16 -16 10 -4 14 -1 12 6 -5 15 -28 23 -28 10z"/>
<path d="M4150 3216 c0 -8 4 -17 9 -20 5 -4 7 3 4 14 -6 23 -13 26 -13 6z"/>
<path d="M4034 3161 c1 -16 4 -27 9 -24 10 6 9 41 -2 47 -4 3 -8 -8 -7 -23z"/>
<path d="M4225 3150 c-3 -5 -1 -10 4 -10 6 0 11 5 11 10 0 6 -2 10 -4 10 -3 0
-8 -4 -11 -10z"/>
<path d="M4405 3140 c3 -5 8 -10 11 -10 2 0 4 5 4 10 0 6 -5 10 -11 10 -5 0
-7 -4 -4 -10z"/>
<path d="M4540 3140 c0 -5 7 -10 16 -10 8 0 12 5 9 10 -3 6 -10 10 -16 10 -5
0 -9 -4 -9 -10z"/>
<path d="M43 6440 c3 -10 0 -21 -7 -24 -6 -2 -4 -5 4 -5 25 -1 42 20 29 36
-17 19 -32 16 -26 -7z"/>
<path d="M346 6441 c-3 -5 1 -11 9 -15 8 -3 15 -1 15 4 0 13 -18 22 -24 11z"/>
<path d="M786 6438 c3 -4 -5 -8 -17 -8 -17 0 -20 -3 -12 -11 8 -8 17 -8 31 0
14 7 23 8 27 1 8 -13 25 -3 25 15 0 9 -11 13 -30 13 -16 -1 -27 -5 -24 -10z"/>
<path d="M4522 6425 c0 -16 2 -22 5 -12 2 9 2 23 0 30 -3 6 -5 -1 -5 -18z"/>
<path d="M298 6429 c16 -18 15 -29 -3 -29 -8 0 -15 -4 -15 -10 0 -15 16 -12
34 6 20 20 20 21 -6 35 -19 9 -21 9 -10 -2z"/>
<path d="M528 6423 c-4 -13 2 -18 19 -19 27 -2 28 2 9 22 -19 18 -23 18 -28
-3z"/>
<path d="M105 6420 c3 -5 10 -10 16 -10 5 0 9 5 9 10 0 6 -7 10 -16 10 -8 0
-12 -4 -9 -10z"/>
<path d="M623 6423 c-7 -3 -13 -12 -13 -21 0 -15 2 -15 17 1 18 18 16 27 -4
20z"/>
<path d="M73 6403 c4 -6 2 -13 -5 -15 -8 -3 -6 -7 5 -11 23 -9 30 8 10 24 -9
8 -14 9 -10 2z"/>
<path d="M1300 6400 c0 -5 5 -10 10 -10 6 0 10 5 10 10 0 6 -4 10 -10 10 -5 0
-10 -4 -10 -10z"/>
<path d="M4381 6394 c10 -13 10 -17 -2 -25 -11 -7 -10 -9 6 -10 11 -1 26 0 34
1 11 1 10 -2 -3 -15 -19 -19 -19 -24 -6 -45 9 -13 11 -13 20 0 8 11 12 12 18
3 20 -31 76 16 65 56 -5 20 -23 30 -23 13 0 -4 -20 -6 -45 -4 -36 3 -45 8 -45
23 0 11 -7 19 -16 19 -14 0 -14 -3 -3 -16z m79 -64 c8 -5 11 -12 7 -17 -5 -4
-12 -1 -18 7 -8 13 -10 13 -18 0 -6 -8 -13 -11 -18 -7 -6 7 13 27 27 27 3 0
12 -4 20 -10z"/>
<path d="M720 6390 c0 -5 5 -10 11 -10 5 0 7 5 4 10 -3 6 -8 10 -11 10 -2 0
-4 -4 -4 -10z"/>
<path d="M1340 6371 c0 -6 4 -12 8 -15 5 -3 9 1 9 9 0 8 -4 15 -9 15 -4 0 -8
-4 -8 -9z"/>
<path d="M4568 6363 c7 -3 16 -2 19 1 4 3 -2 6 -13 5 -11 0 -14 -3 -6 -6z"/>
<path d="M408 6353 c7 -3 16 -2 19 1 4 3 -2 6 -13 5 -11 0 -14 -3 -6 -6z"/>
<path d="M1370 6356 c0 -2 9 -6 20 -9 11 -3 20 -1 20 4 0 5 -9 9 -20 9 -11 0
-20 -2 -20 -4z"/>
<path d="M2405 6329 c-22 -4 -53 -13 -70 -18 -60 -19 16 -11 85 9 66 19 57 25
-15 9z"/>
<path d="M3226 6328 c-9 -5 -39 -10 -67 -11 -44 -2 -52 -6 -67 -31 -13 -22
-14 -30 -4 -33 6 -3 12 -11 12 -18 0 -7 6 -16 13 -18 6 -3 2 -6 -11 -6 -18 -1
-23 -6 -20 -23 2 -13 8 -23 15 -23 7 0 18 -8 25 -18 13 -17 16 -17 43 -3 70
37 171 10 240 -62 21 -23 43 -42 47 -42 18 0 5 23 -34 61 -43 41 -91 67 -138
76 -34 6 -34 8 -3 29 45 30 226 23 245 -10 5 -9 16 -16 24 -16 25 0 -2 36 -63
84 -43 34 -70 47 -117 55 -92 17 -122 19 -140 9z"/>
<path d="M2555 6320 c3 -5 11 -10 17 -10 6 0 27 -12 46 -27 19 -14 33 -20 30
-13 -2 8 -22 24 -44 37 -43 24 -59 29 -49 13z"/>
<path d="M4642 6280 c0 -14 2 -19 5 -12 2 6 2 18 0 25 -3 6 -5 1 -5 -13z"/>
<path d="M4665 6290 c3 -5 8 -10 11 -10 2 0 4 5 4 10 0 6 -5 10 -11 10 -5 0
-7 -4 -4 -10z"/>
<path d="M2348 6276 c3 -5 -2 -6 -12 -3 -18 7 -76 -17 -76 -33 0 -12 29 -40
42 -40 5 0 31 -14 57 -32 35 -23 60 -32 103 -35 49 -4 58 -2 72 19 9 12 16 35
16 50 0 16 4 28 8 28 19 0 77 -84 68 -99 -3 -5 6 -8 19 -8 27 0 32 16 14 49
-17 31 -58 64 -117 93 -46 23 -64 26 -127 23 -41 -2 -71 -7 -67 -12z m54 -72
c2 -25 2 -47 0 -49 -2 -2 -16 11 -32 28 -26 29 -27 33 -13 50 27 29 41 20 45
-29z m108 25 c0 -11 -4 -17 -10 -14 -5 3 -10 13 -10 21 0 8 5 14 10 14 6 0 10
-9 10 -21z"/>
<path d="M4926 6185 c4 -8 8 -15 10 -15 2 0 4 7 4 15 0 8 -4 15 -10 15 -5 0
-7 -7 -4 -15z"/>
<path d="M5226 6117 c3 -10 9 -15 12 -12 3 3 0 11 -7 18 -10 9 -11 8 -5 -6z"/>
<path d="M3113 6073 c-34 -36 -44 -70 -18 -59 8 3 14 0 12 -6 -1 -7 29 -22 68
-35 39 -12 78 -27 88 -33 11 -7 51 -8 110 -4 86 6 93 8 95 29 2 23 -50 89 -71
90 -7 1 -34 12 -62 25 -37 18 -68 25 -120 26 -67 1 -71 -1 -102 -33z m134 -25
c-3 -8 -6 -5 -6 6 -1 11 2 17 5 13 3 -3 4 -12 1 -19z m-97 -18 c0 -11 -4 -20
-9 -20 -11 0 -22 26 -14 34 12 12 23 5 23 -14z m192 3 c10 -9 18 -26 18 -38 0
-25 -17 -35 -57 -35 -25 0 -25 1 -9 25 9 13 16 33 16 45 0 24 8 25 32 3z"/>
<path d="M1710 6078 c-13 -12 -30 -23 -38 -24 -22 -4 -24 -9 -29 -71 -4 -49
-1 -61 15 -76 22 -20 52 -13 52 13 0 10 11 37 24 60 19 33 22 49 16 77 -11 46
-12 47 -40 21z"/>
<path d="M6153 6006 c-59 -21 -72 -41 -44 -68 25 -23 31 -23 32 0 0 11 4 7 11
-10 9 -26 38 -40 38 -19 0 4 21 7 48 6 26 -2 39 -1 30 2 -32 8 -20 83 13 83
15 0 19 -8 20 -42 1 -24 1 -47 0 -51 -1 -5 8 -5 20 -2 12 4 29 9 38 10 9 2 18
4 21 5 3 1 7 3 10 3 10 1 58 57 49 57 -5 0 -9 6 -9 14 0 21 -31 28 -134 30
-67 1 -106 -4 -143 -18z m264 -28 c-3 -8 -6 -5 -6 6 -1 11 2 17 5 13 3 -3 4
-12 1 -19z"/>
<path d="M6985 6020 c4 -6 11 -8 16 -5 14 9 11 15 -7 15 -8 0 -12 -5 -9 -10z"/>
<path d="M5255 5980 c-3 -5 -12 -7 -20 -3 -8 3 -15 0 -15 -6 0 -6 11 -11 25
-11 16 0 25 6 25 15 0 17 -6 19 -15 5z"/>
<path d="M3 5965 c0 -8 4 -12 9 -9 5 3 6 10 3 15 -9 13 -12 11 -12 -6z"/>
<path d="M5344 5954 c3 -23 13 -26 18 -6 3 11 0 19 -7 19 -7 0 -12 -6 -11 -13z"/>
<path d="M5288 5943 c7 -3 16 -2 19 1 4 3 -2 6 -13 5 -11 0 -14 -3 -6 -6z"/>
<path d="M5240 5930 c0 -5 5 -10 10 -10 6 0 10 5 10 10 0 6 -4 10 -10 10 -5 0
-10 -4 -10 -10z"/>
<path d="M6896 5911 c-7 -11 3 -41 13 -41 4 0 8 11 9 25 2 25 -11 34 -22 16z"/>
<path d="M1720 5855 c0 -8 5 -15 10 -15 6 0 10 -7 10 -17 0 -9 2 -14 5 -11 9
8 -6 58 -16 58 -5 0 -9 -7 -9 -15z"/>
<path d="M5338 5843 c7 -3 16 -2 19 1 4 3 -2 6 -13 5 -11 0 -14 -3 -6 -6z"/>
<path d="M5015 5820 c3 -5 8 -10 11 -10 2 0 4 5 4 10 0 6 -5 10 -11 10 -5 0
-7 -4 -4 -10z"/>
<path d="M1751 5724 c0 -11 3 -14 6 -6 3 7 2 16 -1 19 -3 4 -6 -2 -5 -13z"/>
<path d="M2707 5663 c-11 -10 -8 -35 2 -28 5 3 12 1 15 -4 10 -16 105 -39 189
-46 43 -4 84 -13 91 -20 7 -8 18 -10 26 -5 10 6 9 9 -2 16 -8 5 -20 19 -27 32
-13 25 -44 28 -88 11 -56 -23 -75 -20 -110 16 -32 33 -78 47 -96 28z"/>
<path d="M5630 5531 c0 -5 7 -12 16 -15 24 -9 27 -7 10 9 -17 17 -26 19 -26 6z"/>
<path d="M5677 5520 c8 -31 20 -33 25 -5 4 19 1 25 -12 25 -13 0 -17 -6 -13
-20z"/>
<path d="M5840 5520 c-8 -16 -8 -18 4 -14 17 6 30 34 16 34 -5 0 -14 -9 -20
-20z"/>
<path d="M5720 5509 c0 -5 5 -7 10 -4 6 3 10 8 10 11 0 2 -4 4 -10 4 -5 0 -10
-5 -10 -11z"/>
<path d="M5775 5500 c3 -5 8 -10 11 -10 2 0 4 5 4 10 0 6 -5 10 -11 10 -5 0
-7 -4 -4 -10z"/>
<path d="M2386 5412 c-15 -25 59 -70 114 -70 28 1 92 -15 166 -41 93 -31 137
-41 185 -41 73 0 138 -16 154 -36 13 -18 73 -3 107 27 l23 20 -28 -6 c-16 -3
-34 -2 -40 3 -7 6 -47 28 -91 51 -59 31 -90 41 -125 41 -27 0 -65 9 -90 21
-39 18 -54 20 -170 13 -107 -5 -132 -4 -159 10 -36 18 -39 19 -46 8z m357 -69
l32 -18 -40 -3 c-22 -1 -69 6 -105 17 l-65 19 73 1 c52 1 82 -4 105 -16z"/>
<path d="M6160 5396 c0 -14 48 -32 57 -22 3 3 3 12 0 21 -8 19 -57 20 -57 1z"/>
<path d="M3207 5340 c3 -11 7 -20 9 -20 2 0 4 9 4 20 0 11 -4 20 -9 20 -5 0
-7 -9 -4 -20z"/>
<path d="M6280 5340 c0 -5 5 -10 11 -10 5 0 7 5 4 10 -3 6 -8 10 -11 10 -2 0
-4 -4 -4 -10z"/>
<path d="M8225 5290 c-3 -5 -1 -10 4 -10 6 0 11 5 11 10 0 6 -2 10 -4 10 -3 0
-8 -4 -11 -10z"/>
<path d="M8145 5234 c-33 -25 -76 -56 -95 -69 -69 -48 -67 -43 -61 -128 l6
-79 37 29 c20 15 84 64 142 108 62 47 105 87 105 98 1 14 -15 6 -71 -34 -135
-95 -147 -102 -165 -94 -12 5 -14 9 -5 12 6 3 12 14 12 26 0 15 28 49 83 99
45 43 80 78 77 77 -3 0 -32 -21 -65 -45z"/>
<path d="M2703 5190 c-26 -21 -13 -40 27 -39 25 1 25 1 -5 14 -27 13 -27 14
-7 15 12 0 22 4 22 9 0 19 -15 19 -37 1z"/>
<path d="M2772 5201 c-10 -6 -7 -10 12 -13 18 -4 26 -1 26 8 0 16 -18 18 -38
5z"/>
<path d="M2882 5190 c-16 -10 -33 -23 -36 -29 -4 -6 -23 -11 -42 -11 -19 0
-33 -4 -30 -9 4 -5 0 -11 -6 -14 -7 -2 17 -5 55 -5 37 -1 67 2 67 7 0 5 12 12
28 16 15 4 38 20 51 37 23 29 23 30 3 17 -17 -11 -26 -11 -41 -2 -15 9 -24 8
-49 -7z"/>
<path d="M7850 5091 c0 -11 -3 -28 -7 -38 -3 -10 -3 -15 1 -12 12 11 25 69 15
69 -5 0 -9 -9 -9 -19z"/>
<path d="M8120 4949 c-102 -71 -115 -83 -113 -107 2 -15 3 -48 2 -74 0 -27 4
-48 9 -48 6 0 38 20 73 45 35 25 92 64 126 88 38 25 63 49 63 60 0 15 -12 11
-63 -25 -34 -24 -81 -55 -104 -68 -38 -21 -43 -21 -57 -7 -10 10 -12 18 -6 22
6 4 8 10 5 15 -7 11 70 83 134 126 48 32 71 55 54 53 -4 0 -60 -37 -123 -80z
m-70 -153 c0 -8 -6 -16 -14 -19 -10 -4 -12 0 -9 14 6 22 23 26 23 5z"/>
<path d="M7817 5013 c-26 -7 -40 -49 -24 -73 18 -31 26 -24 17 16 -6 27 -5 34
5 30 7 -2 15 4 18 15 3 10 4 18 4 18 -1 -1 -10 -3 -20 -6z"/>
<path d="M1842 4978 c5 -15 28 -23 28 -10 0 5 -7 13 -16 16 -10 4 -14 1 -12
-6z"/>
<path d="M2365 4780 c3 -5 8 -10 11 -10 2 0 4 5 4 10 0 6 -5 10 -11 10 -5 0
-7 -4 -4 -10z"/>
<path d="M8155 4698 l-120 -73 -3 -44 c-2 -28 1 -47 10 -52 10 -7 10 -9 1 -9
-7 0 -13 -12 -13 -26 0 -22 4 -25 21 -21 33 9 229 141 229 155 0 17 -11 15
-50 -11 -61 -41 -161 -86 -176 -80 -11 4 -14 13 -9 32 4 14 7 26 8 27 1 0 34
26 73 57 39 31 74 57 78 57 4 0 12 5 19 10 7 6 23 19 37 30 46 36 16 21 -105
-52z"/>
<path d="M1786 4725 c4 -8 16 -15 28 -15 11 0 30 -7 40 -15 29 -22 42 -18 21
5 -10 11 -27 20 -37 20 -11 0 -28 5 -38 10 -16 8 -18 8 -14 -5z"/>
<path d="M1733 4719 c-32 -12 -29 -16 12 -17 19 -1 35 2 35 7 0 14 -23 19 -47
10z"/>
<path d="M2178 4663 c7 -3 16 -2 19 1 4 3 -2 6 -13 5 -11 0 -14 -3 -6 -6z"/>
<path d="M6321 4654 c0 -11 3 -14 6 -6 3 7 2 16 -1 19 -3 4 -6 -2 -5 -13z"/>
<path d="M1834 4616 c-42 -19 -56 -41 -21 -34 23 5 25 3 16 -19 -15 -40 -11
-200 6 -233 16 -31 44 -45 74 -35 15 4 20 0 23 -17 3 -22 4 -21 22 7 15 22 16
32 7 47 -6 10 -11 25 -11 33 0 13 -4 14 -21 5 -25 -14 -49 -6 -49 15 0 8 -6
15 -14 15 -8 0 -13 11 -12 28 1 16 6 26 14 25 6 -2 12 3 12 11 0 8 7 16 15 20
8 3 15 12 15 20 0 7 11 21 25 30 14 9 23 21 20 27 -4 5 -10 7 -15 4 -4 -2 -13
9 -20 25 -7 17 -16 30 -20 30 -5 0 -14 2 -22 5 -7 2 -27 -2 -44 -9z"/>
<path d="M2248 4619 c-10 -5 -18 -16 -18 -24 0 -20 -30 -34 -65 -29 l-30 4 28
-11 c22 -9 36 -7 68 5 21 9 49 17 62 17 17 1 18 2 5 6 -10 2 -18 9 -18 14 0 5
8 9 18 9 9 0 24 5 32 10 21 14 -59 13 -82 -1z"/>
<path d="M1930 4589 c0 -5 5 -7 10 -4 6 3 10 8 10 11 0 2 -4 4 -10 4 -5 0 -10
-5 -10 -11z"/>
<path d="M2370 4533 c56 -51 70 -60 70 -46 0 17 -95 93 -116 93 -3 0 17 -21
46 -47z"/>
<path d="M1761 4558 c0 -7 4 -22 9 -33 7 -17 9 -15 9 13 1 17 -3 32 -9 32 -5
0 -10 -6 -9 -12z"/>
<path d="M2105 4560 c3 -5 8 -10 11 -10 2 0 4 5 4 10 0 6 -5 10 -11 10 -5 0
-7 -4 -4 -10z"/>
<path d="M1756 4472 c-5 -18 -5 -36 -2 -39 7 -7 19 43 13 59 -2 7 -7 -2 -11
-20z"/>
<path d="M8153 4423 c-83 -45 -103 -61 -103 -79 0 -12 7 -24 15 -28 10 -3 15
1 15 14 0 12 24 35 65 64 36 25 70 46 74 46 4 0 16 9 26 20 10 11 16 20 14 20
-2 0 -50 -26 -106 -57z"/>
<path d="M1997 4413 c-13 -21 22 -60 79 -88 34 -16 78 -44 97 -62 33 -29 39
-31 66 -20 25 9 28 13 15 20 -9 5 -27 7 -40 4 -34 -6 -128 93 -121 129 3 16 0
24 -9 24 -8 0 -14 -5 -14 -11 0 -11 -16 -9 -51 6 -10 3 -19 2 -22 -2z"/>
<path d="M8252 4354 c-44 -30 -176 -83 -183 -73 -7 12 -19 -14 -19 -42 0 -32
14 -27 169 61 39 22 61 41 61 52 0 22 0 22 -28 2z"/>
<path d="M3142 4325 c-23 -50 -7 -111 17 -66 13 23 15 91 3 91 -5 0 -14 -11
-20 -25z"/>
<path d="M1275 4291 c-158 -56 -259 -158 -174 -175 51 -10 209 13 259 37 36
17 46 28 48 50 4 32 -17 61 -60 83 -29 15 -42 16 -73 5z"/>
<path d="M2325 4290 c-12 -4 -27 -15 -34 -24 -11 -13 -11 -17 2 -21 8 -4 27 7
45 24 30 31 26 37 -13 21z"/>
<path d="M2760 4277 c-62 -30 -92 -77 -84 -131 4 -22 13 -48 20 -57 19 -22 17
-28 -6 -22 -12 3 -20 14 -20 26 0 19 -46 97 -57 97 -3 0 4 -16 16 -36 35 -58
25 -81 -29 -69 -22 5 -30 12 -30 28 -1 78 -174 140 -192 69 -8 -29 62 -90 92
-80 3 1 15 -4 27 -11 26 -13 96 -28 185 -37 91 -10 93 -10 90 -25 -1 -9 3 -8
11 4 9 10 29 17 53 18 l39 2 -42 6 c-49 8 -72 25 -90 68 -28 69 -10 108 73
160 34 21 -7 14 -56 -10z"/>
<path d="M2005 4272 c5 -17 1 -24 -17 -31 -22 -9 -22 -10 -2 -10 24 -1 41 -18
77 -83 31 -53 36 -58 83 -68 28 -7 35 -4 49 16 23 36 18 67 -15 99 -30 28 -32
29 -58 14 -27 -15 -28 -15 -75 35 -35 37 -46 45 -42 28z m172 -137 c1 -5 -2
-17 -7 -25 -9 -13 -11 -13 -20 0 -15 23 -12 42 7 38 9 -2 18 -7 20 -13z"/>
<path d="M1929 4199 c-24 -24 -22 -52 6 -58 17 -3 18 -1 6 13 -27 32 36 65 67
34 7 -7 12 -8 12 -2 0 36 -59 45 -91 13z"/>
<path d="M2267 4207 c-12 -10 -13 -25 -3 -100 6 -49 14 -85 19 -81 15 16 6
-72 -11 -97 -53 -80 -97 -130 -118 -135 -13 -3 -24 -10 -24 -15 0 -12 17 -11
43 2 22 12 22 12 4 -9 -10 -11 -17 -31 -15 -44 2 -18 9 -22 28 -20 26 3 65 34
82 66 16 29 -11 50 -47 36 -22 -9 -26 -8 -18 2 54 68 84 113 94 143 15 41 29
46 29 10 0 -40 25 -89 53 -104 39 -21 74 -7 97 39 11 22 27 40 35 40 21 0 19
12 -5 33 -23 19 -47 13 -55 -13 -3 -10 -12 -24 -20 -30 -23 -19 -42 4 -56 68
-8 37 -24 71 -46 96 -37 44 -40 58 -18 76 21 17 19 25 -9 38 -18 8 -28 8 -39
-1z"/>
<path d="M8166 4160 c-88 -44 -101 -53 -92 -69 5 -7 15 -4 28 9 12 11 25 20
29 20 9 0 129 71 129 76 0 8 -18 1 -94 -36z"/>
<path d="M1244 4074 c-18 -14 -18 -14 6 -3 31 14 36 19 24 19 -6 0 -19 -7 -30
-16z"/>
<path d="M8222 4065 c-30 -14 -62 -25 -72 -25 -10 0 -23 -7 -30 -15 -7 -8 -18
-15 -25 -15 -16 0 -26 -23 -16 -38 11 -18 201 76 201 100 0 22 6 23 -58 -7z"/>
<path d="M2888 4063 c7 -3 16 -2 19 1 4 3 -2 6 -13 5 -11 0 -14 -3 -6 -6z"/>
<path d="M2170 4043 c0 -13 5 -23 10 -23 13 0 13 11 0 30 -8 12 -10 11 -10 -7z"/>
<path d="M5548 4033 c6 -2 18 -2 25 0 6 3 1 5 -13 5 -14 0 -19 -2 -12 -5z"/>
<path d="M1350 3990 c-22 -6 -23 -8 -7 -15 25 -10 95 4 76 16 -16 10 -34 10
-69 -1z"/>
<path d="M8192 3900 c-41 -16 -80 -34 -88 -41 -18 -15 -18 -39 1 -39 8 0 15 6
15 13 0 6 36 29 80 51 74 35 92 47 73 45 -5 0 -41 -13 -81 -29z"/>
<path d="M7391 3851 c-19 -12 -4 -31 25 -31 19 0 25 5 22 17 -4 20 -27 27 -47
14z"/>
<path d="M2383 3800 c-23 -17 -45 -40 -48 -51 -15 -47 51 -66 99 -28 23 18 27
28 24 63 -4 52 -21 56 -75 16z m45 -36 c-5 -25 -35 -41 -49 -27 -9 9 -9 16 1
28 17 21 52 20 48 -1z"/>
<path d="M2518 3818 c-23 -18 -58 -115 -58 -160 0 -68 67 -84 115 -27 45 54
45 130 0 175 -28 27 -35 29 -57 12z m30 -60 c31 -31 -1 -112 -41 -106 -18 2
-22 9 -21 41 1 21 9 46 19 57 21 23 27 24 43 8z"/>
<path d="M8186 3774 c-38 -13 -73 -21 -77 -18 -5 3 -9 -6 -9 -20 0 -14 3 -26
8 -26 21 -1 172 67 172 78 0 16 -13 15 -94 -14z"/>
<path d="M7530 3763 c0 -6 -12 -13 -27 -15 -17 -2 -28 -9 -28 -18 0 -10 8 -14
24 -12 33 5 52 25 40 43 -5 9 -9 10 -9 2z"/>
<path d="M8230 3643 c-86 -28 -120 -45 -120 -64 0 -21 23 -16 52 11 9 8 37 21
62 29 41 12 64 27 55 35 -2 2 -24 -3 -49 -11z"/>
<path d="M2527 3583 c-3 -5 6 -8 19 -8 13 0 24 3 24 8 0 4 -9 7 -19 7 -11 0
-22 -3 -24 -7z"/>
<path d="M8250 3521 c-8 -5 -39 -14 -68 -21 -49 -11 -74 -32 -58 -47 3 -4 40
4 81 17 57 18 75 28 75 42 0 20 -7 22 -30 9z"/>
<path d="M2582 3503 c-20 -8 -44 -62 -37 -83 9 -29 51 -26 70 4 30 46 9 97
-33 79z"/>
<path d="M2395 3460 c-3 -5 -11 -7 -18 -4 -17 6 -67 -33 -67 -52 0 -20 10 -17
36 11 15 16 35 25 56 26 18 1 25 3 15 6 -9 2 -15 9 -12 14 4 5 4 9 1 9 -3 0
-7 -4 -11 -10z"/>
<path d="M8255 3375 c-5 -2 -36 -11 -67 -21 -32 -9 -58 -20 -58 -23 0 -3 9
-12 20 -19 11 -7 20 -9 20 -4 0 9 58 40 84 44 11 2 21 9 24 16 4 12 -3 14 -23
7z"/>
<path d="M2360 3315 c0 -5 84 -55 94 -55 16 0 -8 21 -44 40 -40 20 -50 23 -50
15z"/>
<path d="M2506 3304 c7 -3 10 -13 7 -23 -3 -13 6 -22 39 -34 56 -22 61 -21 55
3 -3 11 -1 18 4 14 16 -10 9 13 -9 29 -12 11 -35 17 -63 16 -24 0 -39 -3 -33
-5z m59 -24 c3 -6 -1 -7 -9 -4 -18 7 -21 14 -7 14 6 0 13 -4 16 -10z"/>
<path d="M8203 3241 c-50 -8 -56 -13 -51 -38 3 -17 7 -18 66 -5 50 11 62 18
62 33 0 20 -6 21 -77 10z"/>
<path d="M2520 3220 c0 -6 7 -10 15 -10 8 0 15 2 15 4 0 2 -7 6 -15 10 -8 3
-15 1 -15 -4z"/>
<path d="M2703 3192 c-27 -4 -29 -14 -7 -33 18 -15 136 -30 127 -16 -10 16
-99 52 -120 49z"/>
<path d="M2600 3176 c0 -2 7 -6 15 -10 8 -3 15 -1 15 4 0 6 -7 10 -15 10 -8 0
-15 -2 -15 -4z"/>
<path d="M8202 3088 c-33 -7 -42 -14 -40 -26 3 -9 11 -15 19 -13 8 2 24 5 35
6 29 4 64 23 64 35 0 12 -20 11 -78 -2z"/>
<path d="M8187 3004 c-3 -3 -3 -12 0 -20 3 -8 0 -14 -6 -14 -6 0 -11 -11 -11
-25 0 -24 2 -25 43 -19 61 8 67 11 67 32 0 15 -8 19 -35 20 -41 2 -58 9 -50
23 7 10 2 12 -8 3z"/>
<path d="M6765 2970 c-3 -5 -1 -10 4 -10 6 0 11 5 11 10 0 6 -2 10 -4 10 -3 0
-8 -4 -11 -10z"/>
<path d="M6718 2948 c5 -5 16 -8 23 -6 8 3 3 7 -10 11 -17 4 -21 3 -13 -5z"/>
<path d="M6798 2943 c12 -2 30 -2 40 0 9 3 -1 5 -23 4 -22 0 -30 -2 -17 -4z"/>
<path d="M8220 2821 c-35 -6 -35 -6 -34 -56 2 -112 2 -115 27 -115 52 0 67 11
67 46 0 20 -6 37 -16 42 -14 8 -14 10 1 25 11 12 12 17 4 17 -10 0 -10 3 -1
12 16 16 15 38 0 37 -7 -1 -29 -4 -48 -8z"/>
<path d="M8230 2590 c0 -16 -7 -33 -16 -38 -14 -8 -15 -21 -9 -91 6 -70 10
-81 26 -81 16 0 18 -5 12 -45 -5 -41 -4 -45 16 -45 21 0 21 3 21 165 l0 165
-25 0 c-21 0 -25 -5 -25 -30z"/>
<path d="M8220 2273 c3 -55 23 -159 32 -165 25 -15 28 -7 28 82 l0 90 -30 0
c-16 0 -30 -3 -30 -7z"/>
</g>
</svg>
